<svg preserveAspectRatio="none" width="100%" height="100%" overflow="visible" style="display: block;" viewBox="0 0 42 24" fill="none" xmlns="http://www.w3.org/2000/svg">
<g id="carbon:phone">
<path id="Vector" d="M30.4999 20.5H30.3724C15.6349 19.6525 13.5424 7.2175 13.2499 3.4225C13.2264 3.12744 13.2613 2.83062 13.3526 2.54906C13.4439 2.2675 13.5899 2.00673 13.7822 1.78169C13.9745 1.55665 14.2093 1.37177 14.4732 1.23763C14.7371 1.10349 15.0248 1.02274 15.3199 1H19.4524C19.7529 0.99971 20.0464 1.08963 20.2952 1.25812C20.5439 1.42661 20.7363 1.6659 20.8474 1.945L21.9874 4.75C22.0972 5.02266 22.1244 5.32156 22.0658 5.60957C22.0071 5.89758 21.8651 6.162 21.6574 6.37L20.0599 7.9825C20.3095 9.40056 20.9886 10.7078 22.0054 11.7272C23.0221 12.7467 24.3275 13.4292 25.7449 13.6825L27.3724 12.07C27.5836 11.8646 27.8505 11.7259 28.1399 11.6713C28.4293 11.6166 28.7284 11.6483 28.9999 11.7625L31.8274 12.895C32.1023 13.0097 32.3369 13.2036 32.5012 13.452C32.6654 13.7004 32.752 13.9922 32.7499 14.29V18.25C32.7499 18.8467 32.5129 19.419 32.0909 19.841C31.669 20.2629 31.0967 20.5 30.4999 20.5ZM15.4999 2.5C15.301 2.5 15.1103 2.57902 14.9696 2.71967C14.829 2.86032 14.7499 3.05109 14.7499 3.25V3.31C15.0949 7.75 17.3074 18.25 30.4549 19C30.5535 19.0061 30.6522 18.9927 30.7456 18.9605C30.8389 18.9283 30.925 18.8781 30.9988 18.8126C31.0727 18.7471 31.1329 18.6676 31.176 18.5788C31.2191 18.49 31.2442 18.3936 31.2499 18.295V14.29L28.4224 13.1575L26.2699 15.295L25.9099 15.25C19.3849 14.4325 18.4999 7.9075 18.4999 7.84L18.4549 7.48L20.5849 5.3275L19.4599 2.5H15.4999Z" fill="var(--fill-0, white)"/>
</g>
</svg>
