<svg preserveAspectRatio="none" width="100%" height="100%" overflow="visible" style="display: block;" viewBox="0 0 22 16" fill="none" xmlns="http://www.w3.org/2000/svg">
<path id="Vector" d="M10.7252 15.9237H12.0425C12.0425 15.9237 12.4394 15.8687 12.642 15.5913C12.8345 15.3327 12.8345 14.854 12.8345 14.854C12.8345 14.854 12.8061 12.5988 13.6311 12.2676C14.4442 11.9387 15.4754 14.4444 16.5745 15.4076C17.4142 16.1437 18.0458 15.9857 18.0458 15.9857L20.9892 15.9343C20.9892 15.9343 22.531 15.8114 21.8023 14.2653C21.7464 14.1425 21.3889 13.1243 19.6288 11.0352C17.7845 8.85718 18.032 9.20828 20.2485 5.43275C21.5951 3.13302 22.146 1.72744 21.9673 1.13056C21.8151 0.568797 20.8123 0.708067 20.8123 0.708067L17.5104 0.744347C17.5104 0.744347 17.2629 0.708067 17.0842 0.849678C16.9054 0.988948 16.7963 1.30728 16.7963 1.30728C16.7963 1.30728 16.272 3.09674 15.5717 4.60765C14.0839 7.80153 13.4926 7.97708 13.2589 7.76642C12.7052 7.30881 12.8473 5.91727 12.8473 4.92014C12.8473 1.82926 13.2176 0.531346 12.1314 0.197797C11.7739 0.0912966 11.5071 0.0222462 10.5868 0.00352081C9.40429 -0.0128639 8.40695 0.0152245 7.84136 0.367499C7.47011 0.605077 7.18136 1.13056 7.34728 1.15748C7.56728 1.19259 8.06137 1.32835 8.32262 1.78596C8.66637 2.37815 8.6517 3.70064 8.6517 3.70064C8.6517 3.70064 8.84512 7.34743 8.19887 7.80036C7.74511 8.10699 7.14011 7.47266 5.8201 4.57489C5.14635 3.10025 4.63668 1.45007 4.63668 1.45007C4.63668 1.45007 4.54043 1.15046 4.36259 0.974906C4.15451 0.781801 3.85201 0.711578 3.85201 0.711578L0.703241 0.746688C0.703241 0.746688 0.235738 0.765413 0.0716537 1.02757C-0.0805137 1.25579 0.056987 1.74733 0.056987 1.74733C0.056987 1.74733 2.51917 9.10529 5.31135 12.8106C7.86886 16.2069 10.771 15.9881 10.771 15.9881L10.7252 15.9237Z" fill="var(--fill-0, white)"/>
</svg>
