<svg preserveAspectRatio="none" width="100%" height="100%" overflow="visible" style="display: block;" viewBox="0 0 24 18" fill="none" xmlns="http://www.w3.org/2000/svg">
<path id="Vector" d="M14.335 15.8565L14.334 15.8584V15.8887C14.3335 15.9073 14.332 15.9333 14.3301 15.9639C14.3263 16.0246 14.3197 16.109 14.3047 16.2041C14.2776 16.375 14.214 16.6566 14.0449 16.8858C13.8641 17.1333 13.6152 17.2619 13.4473 17.3272C13.3588 17.3616 13.2796 17.3839 13.2217 17.3975C13.1926 17.4043 13.1681 17.4097 13.1494 17.4131C13.1402 17.4148 13.1323 17.416 13.126 17.417C13.1228 17.4175 13.1196 17.4176 13.1172 17.418C13.1161 17.4182 13.1152 17.4188 13.1143 17.419H13.1113L13.0771 17.4239H12.6406L11.8086 17.4864L11.8037 17.4239H11.8027L11.8076 17.4864L11.8057 17.4873C11.8045 17.4874 11.8032 17.4872 11.8018 17.4873C11.7987 17.4875 11.7945 17.4881 11.79 17.4883C11.7813 17.4888 11.7698 17.4888 11.7559 17.4893C11.7271 17.4903 11.6872 17.4916 11.6377 17.4912C11.5385 17.4905 11.3987 17.4849 11.2256 17.4668C10.8794 17.4307 10.3972 17.3442 9.833 17.1446C8.69943 16.7434 7.25244 15.8913 5.91211 14.1114C4.47596 12.2055 3.14235 9.39045 2.17578 7.08304C1.68994 5.92324 1.29199 4.8799 1.01562 4.12698C0.877448 3.75055 0.769822 3.44598 0.696285 3.23538C0.65953 3.13012 0.631356 3.04801 0.612301 2.99222C0.602839 2.96451 0.595712 2.94322 0.590817 2.92874C0.588378 2.92153 0.586231 2.91593 0.584957 2.91214C0.58432 2.91024 0.583343 2.90827 0.583004 2.90726V2.90628L0.579098 2.89456L0.575192 2.88186V2.87991L0.574215 2.87796L0.566402 2.84671C0.561679 2.82777 0.555456 2.80185 0.548824 2.77054C0.535737 2.70873 0.51973 2.62176 0.509762 2.52347C0.500003 2.42721 0.494307 2.3071 0.507809 2.18265C0.52047 2.06631 0.554469 1.90933 0.648434 1.76272H0.647457C0.648464 1.76112 0.650349 1.75944 0.651363 1.75784C0.652937 1.75542 0.653662 1.75244 0.65527 1.75003H0.656246C0.843113 1.46235 1.15224 1.3517 1.31738 1.30667C1.41444 1.28021 1.50252 1.26578 1.56543 1.25784C1.59703 1.25386 1.62362 1.25159 1.64355 1.25003C1.65358 1.24924 1.66234 1.24846 1.66894 1.24808C1.67225 1.24788 1.67535 1.24722 1.67773 1.2471H1.68261H1.68359H1.69726L4.84668 1.21194L4.90625 1.21097L4.96484 1.22464H4.96679L4.97558 1.22757C4.98027 1.22873 4.98626 1.22965 4.99316 1.23147C5.00716 1.23518 5.02582 1.24041 5.04785 1.2471C5.09159 1.26038 5.15085 1.28078 5.21875 1.30862C5.31632 1.34865 5.44734 1.4104 5.57617 1.50393L5.70312 1.60843L5.71386 1.61917C5.86314 1.76654 5.96159 1.94542 6.01757 2.06253C6.04762 2.12538 6.07039 2.1811 6.08593 2.22171C6.09377 2.24217 6.10003 2.25971 6.10449 2.27249C6.10665 2.27868 6.108 2.28401 6.10937 2.28811C6.11007 2.29022 6.11083 2.29245 6.11132 2.29397L6.1123 2.29593V2.2969L6.11425 2.30276V2.30374C6.11446 2.30439 6.11485 2.30544 6.11523 2.30667C6.11612 2.30952 6.11831 2.31359 6.12011 2.31936C6.1238 2.33113 6.12935 2.34891 6.13671 2.3721C6.15153 2.41873 6.17351 2.48794 6.20214 2.57522C6.25941 2.7498 6.34305 2.99811 6.44726 3.29202C6.65638 3.8818 6.94602 4.64846 7.27441 5.36722H7.27539C7.93525 6.81579 8.39566 7.65102 8.72949 8.08304C8.81809 8.19766 8.88759 8.26894 8.93652 8.31253L8.93847 8.31058C8.97799 8.21062 9.01643 8.06681 9.0498 7.88089C9.11628 7.51024 9.15205 7.03881 9.16796 6.56351C9.18374 6.09202 9.17977 5.63224 9.17187 5.28909C9.16793 5.11783 9.16311 4.97615 9.15918 4.87796C9.15723 4.82932 9.1555 4.79134 9.15429 4.76565C9.1537 4.75293 9.15364 4.74277 9.15332 4.73636C9.15317 4.73345 9.15242 4.73103 9.15234 4.72952V4.72757L9.15136 4.71097V4.64651C9.15112 4.61259 9.1503 4.56233 9.14843 4.50003C9.14468 4.37472 9.13646 4.20215 9.11816 4.0137C9.0788 3.60848 9.00222 3.22965 8.89062 3.03714L8.88867 3.03421C8.74243 2.77806 8.44238 2.67915 8.26855 2.6514H8.26757C8.08093 2.62112 7.91937 2.49959 7.84375 2.31839C7.7842 2.17556 7.79802 2.04252 7.80957 1.97366C7.83408 1.82778 7.90132 1.68947 7.96289 1.58597C8.09175 1.36943 8.30803 1.11541 8.57226 0.946318L8.57714 0.943388C8.95706 0.706761 9.43875 0.601362 9.93066 0.549833C10.4306 0.497463 11.0016 0.495731 11.5937 0.503935H11.5967C12.3148 0.518546 12.6702 0.563848 12.9746 0.636747L13.2744 0.718779L13.2783 0.719755C13.6598 0.836932 13.9531 1.05795 14.1406 1.40237C14.3126 1.71834 14.3727 2.09906 14.3955 2.49612C14.4186 2.89888 14.4053 3.38546 14.3877 3.94143C14.3699 4.50457 14.3477 5.15686 14.3477 5.91995C14.3477 6.465 14.3122 7.0022 14.3447 7.5137C14.3604 7.76029 14.3912 7.96473 14.4394 8.1221C14.4522 8.16355 14.4645 8.19928 14.4775 8.22952C14.5032 8.20396 14.5348 8.17435 14.5684 8.13577C14.8823 7.77532 15.3772 6.98717 16.1182 5.39651C16.4579 4.6634 16.7577 3.85684 16.9736 3.22854C17.0812 2.91545 17.1675 2.64886 17.2266 2.46097C17.2561 2.36705 17.2787 2.29258 17.2939 2.24222C17.3015 2.21727 17.3077 2.19833 17.3115 2.18558C17.3134 2.17919 17.3145 2.17402 17.3154 2.17093C17.3158 2.16965 17.3162 2.1687 17.3164 2.168V2.16702L17.3193 2.15628L17.3232 2.14554V2.14456L17.3242 2.14163C17.3248 2.14008 17.3254 2.13794 17.3262 2.13577C17.3277 2.13143 17.3305 2.12582 17.333 2.11917C17.3379 2.10602 17.3441 2.08828 17.3525 2.06741C17.3696 2.02546 17.395 1.96742 17.4277 1.90335C17.4851 1.79125 17.5968 1.59701 17.7734 1.45804L17.8467 1.4053C18.0176 1.29472 18.1946 1.2583 18.3135 1.24612C18.3848 1.23882 18.447 1.23917 18.4922 1.24124C18.5062 1.24189 18.519 1.24228 18.5303 1.24319L21.7783 1.20804C21.7865 1.20712 21.796 1.20615 21.8066 1.20511C21.8419 1.20166 21.8909 1.19793 21.9492 1.19534C22.0636 1.19026 22.2246 1.19026 22.3975 1.21292C22.6864 1.25085 23.2861 1.39422 23.4502 2.00003H23.4492C23.5227 2.25623 23.5083 2.54236 23.4551 2.82425C23.3995 3.11841 23.2931 3.45456 23.1445 3.82815C22.9216 4.38884 22.5909 5.06411 22.1533 5.8555L21.6797 6.68558C21.1088 7.65806 20.7017 8.3031 20.3906 8.84378C20.0829 9.37874 19.947 9.68568 19.9092 9.91409C19.8794 10.0947 19.9061 10.2532 20.0635 10.5127C20.1513 10.6576 20.2695 10.8173 20.4248 11.0108L21.0107 11.7119L21.0117 11.7129C21.9066 12.7751 22.452 13.5743 22.7842 14.1319C22.9503 14.4107 23.063 14.6284 23.1387 14.7881C23.1853 14.8866 23.2399 15.0156 23.2549 15.0518L23.3271 15.2178C23.4817 15.5994 23.5331 15.9501 23.4746 16.2686C23.4059 16.6427 23.1978 16.9051 22.9717 17.0772C22.7539 17.2429 22.5156 17.329 22.3477 17.3741C22.2614 17.3971 22.1867 17.4113 22.1318 17.42C22.1042 17.4243 22.0808 17.4277 22.0635 17.4297C22.055 17.4307 22.0477 17.4311 22.042 17.4317C22.0391 17.4319 22.0363 17.4325 22.0342 17.4326H22.0293L21.998 17.4346L19.0967 17.4844C19.0954 17.4846 19.0941 17.4852 19.0928 17.4854C19.0575 17.4908 19.0116 17.4956 18.957 17.4981C18.8475 17.5031 18.7015 17.4977 18.5273 17.4629C18.1749 17.3925 17.728 17.2066 17.2451 16.7832C16.9262 16.5037 16.6289 16.1285 16.3603 15.7569C16.1006 15.3974 15.8154 14.9652 15.5869 14.6407C15.3383 14.2875 15.1271 14.0189 14.9463 13.8575C14.8667 13.7864 14.8166 13.7587 14.791 13.7471C14.7536 13.7758 14.6887 13.8477 14.6162 14.0127C14.5275 14.2148 14.4619 14.4805 14.417 14.7637C14.3728 15.0423 14.3525 15.3155 14.3428 15.5205C14.338 15.622 14.3357 15.7053 14.335 15.7627C14.3346 15.7912 14.334 15.8137 14.334 15.8282V15.8477L14.335 15.8545V15.8565Z" stroke="var(--stroke-0, white)"/>
</svg>
