<svg width="22" height="22" viewBox="0 0 22 22" fill="none" xmlns="http://www.w3.org/2000/svg">
<g clip-path="url(#clip0_7_1730)">
<path d="M16.7283 12.2925C16.0078 13.7527 15.0315 15.2075 14.0333 16.5138C13.0863 17.7452 12.0737 18.9248 11 20.0475C9.92624 18.9249 8.91369 17.7452 7.96675 16.5138C6.9685 15.2075 5.99225 13.7527 5.27175 12.2925C4.543 10.8171 4.125 9.43525 4.125 8.25C4.125 6.42664 4.84933 4.67795 6.13864 3.38864C7.42795 2.09933 9.17664 1.375 11 1.375C12.8234 1.375 14.572 2.09933 15.8614 3.38864C17.1507 4.67795 17.875 6.42664 17.875 8.25C17.875 9.43525 17.4556 10.8171 16.7283 12.2925ZM11 22C11 22 19.25 14.1818 19.25 8.25C19.25 6.06196 18.3808 3.96354 16.8336 2.41637C15.2865 0.869194 13.188 0 11 0C8.81196 0 6.71354 0.869194 5.16637 2.41637C3.61919 3.96354 2.75 6.06196 2.75 8.25C2.75 14.1818 11 22 11 22Z" fill="white"/>
<path d="M11 11C10.2707 11 9.57118 10.7103 9.05546 10.1945C8.53973 9.67882 8.25 8.97935 8.25 8.25C8.25 7.52065 8.53973 6.82118 9.05546 6.30546C9.57118 5.78973 10.2707 5.5 11 5.5C11.7293 5.5 12.4288 5.78973 12.9445 6.30546C13.4603 6.82118 13.75 7.52065 13.75 8.25C13.75 8.97935 13.4603 9.67882 12.9445 10.1945C12.4288 10.7103 11.7293 11 11 11ZM11 12.375C12.094 12.375 13.1432 11.9404 13.9168 11.1668C14.6904 10.3932 15.125 9.34402 15.125 8.25C15.125 7.15598 14.6904 6.10677 13.9168 5.33318C13.1432 4.5596 12.094 4.125 11 4.125C9.90598 4.125 8.85677 4.5596 8.08318 5.33318C7.3096 6.10677 6.875 7.15598 6.875 8.25C6.875 9.34402 7.3096 10.3932 8.08318 11.1668C8.85677 11.9404 9.90598 12.375 11 12.375V12.375Z" fill="white"/>
</g>
<defs>
<clipPath id="clip0_7_1730">
<rect width="22" height="22" fill="white"/>
</clipPath>
</defs>
</svg>
