<svg preserveAspectRatio="none" width="100%" height="100%" overflow="visible" style="display: block;" viewBox="0 0 18 18" fill="none" xmlns="http://www.w3.org/2000/svg">
<path id="Vector" d="M5.475 11.075C6.64861 12.2486 8.5514 12.2486 9.725 11.075L13.95 6.85C14.3366 6.4634 14.3366 5.8366 13.95 5.45C13.5634 5.0634 12.9366 5.0634 12.55 5.45L9.025 8.975C8.238 9.76201 6.96201 9.76201 6.175 8.975L5.45 8.25C5.0634 7.8634 4.4366 7.8634 4.05 8.25C3.6634 8.6366 3.6634 9.2634 4.05 9.65L5.475 11.075ZM2 18C1.45 18 0.979002 17.804 0.587002 17.412C0.195002 17.02 -0.000664969 16.5493 1.69779e-06 16V2C1.69779e-06 1.45 0.196002 0.979002 0.588002 0.587002C0.980002 0.195002 1.45067 -0.000664969 2 1.69779e-06H16C16.55 1.69779e-06 17.021 0.196002 17.413 0.588002C17.805 0.980002 18.0007 1.45067 18 2V16C18 16.55 17.804 17.021 17.412 17.413C17.02 17.805 16.5493 18.0007 16 18H2Z" fill="var(--fill-0, #3B3838)"/>
</svg>
