<svg preserveAspectRatio="none" width="100%" height="100%" overflow="visible" style="display: block;" viewBox="0 0 297 76" fill="none" xmlns="http://www.w3.org/2000/svg">
<g id="&#209;&#129;&#208;&#184;&#208;&#189;&#208;&#184;&#208;&#185; &#208;&#191;&#208;&#190;&#208;&#187;&#208;&#189;&#209;&#139;&#208;&#185; 3" clip-path="url(#clip0_0_19)">
<path id="Vector" d="M31.1234 40.9054L0 23.4659V58.1492L31.1234 75.5891V40.9054Z" fill="var(--fill-0, white)"/>
<path id="Vector_2" d="M36.8803 40.9054L68.0035 23.4659V58.1492L36.8803 75.5891V40.9054Z" fill="var(--fill-0, white)"/>
<path id="Vector_3" d="M34.0354 -6.70328e-07L2.07497 18.1355L34.0354 36.0852L66.3964 18.1355L34.0354 -6.70328e-07Z" fill="var(--fill-0, white)"/>
<path id="Vector_4" d="M108.853 24.3222L139.622 46.7276H127.23L101.825 27.5648V46.7276H93.7204V5.38775H101.825V21.3728L126.053 5.38775H138.63L108.853 24.3222Z" fill="var(--fill-0, white)"/>
<path id="Vector_5" d="M219.49 5.37131L196.321 40.4537C195.16 42.5069 192.941 44.0875 189.662 45.1955C186.417 46.3199 182.702 46.874 178.515 46.874C177.691 46.874 177.035 46.8575 176.582 46.8247V40.5189C181.44 40.5189 183.862 39.7694 183.862 38.2865C183.862 37.8466 183.677 37.374 183.307 36.8852L164.492 5.37131H173.269L190.957 35.0439L210.696 5.37131H219.49Z" fill="var(--fill-0, white)"/>
<path id="Vector_6" d="M270.516 20.118C277.982 20.118 283.631 20.6394 287.448 21.6823C291.265 22.7252 293.787 24.1428 294.981 25.9352C296.225 27.7276 296.847 30.0252 296.847 32.8604V33.0234C296.847 35.3372 296.376 37.4718 295.418 39.4435C294.46 41.4151 292.173 43.1913 288.574 44.7556C285.01 46.3199 279.63 47.102 272.45 47.102H248.339V5.76236H293.871V12.1825H256.444V20.118H270.516ZM274.619 40.8937C279.596 40.8937 283.194 40.2419 285.396 38.9383C287.633 37.6022 288.759 35.5979 288.759 32.9582C288.759 31.2147 288.289 29.8459 287.33 28.8845C286.422 27.9231 284.943 27.2388 282.908 26.8803C280.907 26.4729 278.15 26.2611 274.619 26.2611H256.426V40.7797C265.607 40.7797 271.189 40.8122 273.173 40.8937H274.619Z" fill="var(--fill-0, white)"/>
<path id="Vector_7" d="M100.268 68.447V61.5411H96.3934L96.3238 63.4946C96.3009 64.0998 96.2623 64.682 96.2085 65.2412C96.1622 65.7925 96.085 66.2904 95.9768 66.7349C95.8767 67.1716 95.7379 67.5276 95.5606 67.8035C95.3909 68.079 95.1673 68.2402 94.8898 68.2858L93.9526 68.1135C94.261 68.1292 94.5156 68.0177 94.7163 67.7805C94.9242 67.5428 95.0824 67.2098 95.1902 66.781C95.306 66.3517 95.3909 65.8501 95.4447 65.2757C95.4986 64.7009 95.5372 64.0804 95.5606 63.4139L95.6531 60.8055H101.113V68.447H100.268ZM93.6518 70.6528L93.6637 68.1135H102.327V70.6528H101.529V68.8491H94.4617L94.4498 70.6528H93.6518Z" fill="var(--fill-0, white)"/>
<path id="Vector_8" d="M105.647 64.4024H109.927V65.126H105.647V64.4024ZM105.739 68.1135H110.609V68.8491H104.883V60.8055H110.435V61.5411H105.739V68.1135Z" fill="var(--fill-0, white)"/>
<path id="Vector_9" d="M113.318 68.8491V60.8055H116.684C117.54 60.8055 118.211 60.9819 118.697 61.3343C119.19 61.6788 119.437 62.1883 119.437 62.8626C119.437 63.5291 119.202 64.0344 118.731 64.3794C118.261 64.7165 117.644 64.8847 116.881 64.8847L117.077 64.5977C117.98 64.5977 118.666 64.7737 119.136 65.126C119.607 65.4784 119.842 65.9956 119.842 66.6773C119.842 67.3669 119.595 67.903 119.102 68.2858C118.616 68.6612 117.883 68.8491 116.904 68.8491H113.318ZM114.162 68.1711H116.904C117.59 68.1711 118.111 68.0449 118.465 67.792C118.82 67.5391 118.997 67.1485 118.997 66.6198C118.997 66.0988 118.82 65.7161 118.465 65.471C118.111 65.2255 117.59 65.103 116.904 65.103H114.162V68.1711ZM114.162 64.448H116.638C117.263 64.448 117.74 64.3255 118.072 64.0804C118.411 63.8276 118.581 63.4563 118.581 62.9658C118.581 62.4757 118.411 62.1081 118.072 61.8631C117.74 61.6102 117.263 61.4835 116.638 61.4835H114.162V64.448Z" fill="var(--fill-0, white)"/>
<path id="Vector_10" d="M123.555 64.4024H127.835V65.126H123.555V64.4024ZM123.648 68.1135H128.518V68.8491H122.792V60.8055H128.344V61.5411H123.648V68.1135Z" fill="var(--fill-0, white)"/>
<path id="Vector_11" d="M130.637 68.9182C130.528 68.9182 130.424 68.9104 130.324 68.8952C130.224 68.8873 130.112 68.868 129.989 68.8376L130.058 68.079C130.189 68.1098 130.317 68.125 130.44 68.125C130.787 68.125 131.065 67.991 131.273 67.7229C131.489 67.447 131.651 67.026 131.759 66.459C131.867 65.8846 131.936 65.149 131.967 64.2527L132.083 60.8055H137.577V68.8491H136.733V61.3113L136.952 61.5411H132.626L132.834 61.2998L132.73 64.2297C132.699 65.0344 132.642 65.7313 132.557 66.3213C132.472 66.9035 132.349 67.3899 132.186 67.7805C132.025 68.1633 131.817 68.4507 131.562 68.6423C131.307 68.8261 130.999 68.9182 130.637 68.9182Z" fill="var(--fill-0, white)"/>
<path id="Vector_12" d="M144.67 68.9182C144.06 68.9182 143.493 68.8182 142.969 68.6193C142.453 68.4124 142.001 68.125 141.616 67.7575C141.238 67.3821 140.941 66.9491 140.725 66.459C140.517 65.9611 140.413 65.4171 140.413 64.8275C140.413 64.2375 140.517 63.6977 140.725 63.2071C140.941 62.7092 141.238 62.2767 141.616 61.9087C142.001 61.5333 142.453 61.2463 142.969 61.0469C143.486 60.8401 144.053 60.7369 144.67 60.7369C145.279 60.7369 145.842 60.8401 146.359 61.0469C146.875 61.2463 147.322 61.5296 147.7 61.8972C148.086 62.2652 148.383 62.6977 148.591 63.1956C148.807 63.6935 148.915 64.2375 148.915 64.8275C148.915 65.4171 148.807 65.9611 148.591 66.459C148.383 66.9569 148.086 67.3899 147.7 67.7575C147.322 68.125 146.875 68.4124 146.359 68.6193C145.842 68.8182 145.279 68.9182 144.67 68.9182ZM144.67 68.1596C145.155 68.1596 145.602 68.079 146.011 67.9182C146.428 67.7496 146.787 67.5161 147.087 67.2172C147.395 66.9109 147.635 66.5585 147.804 66.1601C147.974 65.7543 148.059 65.3098 148.059 64.8275C148.059 64.3448 147.974 63.9045 147.804 63.5061C147.635 63.0998 147.395 62.7475 147.087 62.449C146.787 62.1427 146.428 61.9087 146.011 61.7479C145.602 61.5794 145.155 61.4951 144.67 61.4951C144.184 61.4951 143.733 61.5794 143.316 61.7479C142.9 61.9087 142.537 62.1427 142.229 62.449C141.928 62.7475 141.689 63.0998 141.512 63.5061C141.342 63.9045 141.257 64.3448 141.257 64.8275C141.257 65.3024 141.342 65.7428 141.512 66.1486C141.689 66.5548 141.928 66.9109 142.229 67.2172C142.537 67.5161 142.9 67.7496 143.316 67.9182C143.733 68.079 144.184 68.1596 144.67 68.1596Z" fill="var(--fill-0, white)"/>
<path id="Vector_13" d="M151.767 68.8491V60.8055H158.58V68.8491H157.736V61.3113L157.956 61.5411H152.392L152.612 61.3113V68.8491H151.767Z" fill="var(--fill-0, white)"/>
<path id="Vector_14" d="M162.886 64.4024H167.166V65.126H162.886V64.4024ZM162.978 68.1135H167.848V68.8491H162.122V60.8055H167.674V61.5411H162.978V68.1135Z" fill="var(--fill-0, white)"/>
<path id="Vector_15" d="M170.557 68.8491V60.8055H173.588C174.274 60.8055 174.864 60.917 175.357 61.139C175.851 61.3537 176.229 61.6673 176.491 62.0814C176.761 62.4872 176.896 62.9814 176.896 63.5636C176.896 64.1302 176.761 64.6207 176.491 65.0344C176.229 65.4401 175.851 65.7543 175.357 65.9763C174.864 66.1988 174.274 66.3098 173.588 66.3098H171.031L171.413 65.9077V68.8491H170.557ZM171.413 65.9763L171.031 65.5627H173.564C174.374 65.5627 174.987 65.3904 175.404 65.0459C175.828 64.6935 176.04 64.1993 176.04 63.5636C176.04 62.9202 175.828 62.4223 175.404 62.0699C174.987 61.7175 174.374 61.5411 173.564 61.5411H171.031L171.413 61.139V65.9763Z" fill="var(--fill-0, white)"/>
<path id="Vector_16" d="M183.107 68.9182C182.498 68.9182 181.935 68.8182 181.418 68.6193C180.902 68.4124 180.454 68.125 180.077 67.7575C179.699 67.3899 179.402 66.9569 179.186 66.459C178.978 65.9611 178.874 65.4171 178.874 64.8275C178.874 64.2375 178.978 63.6935 179.186 63.1956C179.402 62.6977 179.699 62.2652 180.077 61.8972C180.462 61.5296 180.914 61.2463 181.43 61.0469C181.947 60.8401 182.51 60.7369 183.119 60.7369C183.705 60.7369 184.256 60.8364 184.773 61.0354C185.29 61.227 185.726 61.5181 186.08 61.9087L185.536 62.449C185.205 62.1118 184.838 61.8705 184.437 61.7249C184.037 61.572 183.605 61.4951 183.142 61.4951C182.656 61.4951 182.205 61.5794 181.789 61.7479C181.372 61.9087 181.01 62.1427 180.701 62.449C180.393 62.7475 180.15 63.0998 179.972 63.5061C179.803 63.9045 179.718 64.3448 179.718 64.8275C179.718 65.3098 179.803 65.7543 179.972 66.1601C180.15 66.5585 180.393 66.9109 180.701 67.2172C181.01 67.5161 181.372 67.7496 181.789 67.9182C182.205 68.079 182.656 68.1596 183.142 68.1596C183.605 68.1596 184.037 68.0831 184.437 67.9297C184.838 67.7768 185.205 67.5313 185.536 67.1946L186.08 67.7344C185.726 68.125 185.29 68.4203 184.773 68.6193C184.256 68.8182 183.701 68.9182 183.107 68.9182Z" fill="var(--fill-0, white)"/>
<path id="Vector_17" d="M194.198 68.8491L191.087 64.8391L191.781 64.4254L195.181 68.8491H194.198ZM188.657 68.8491V60.8055H189.49V68.8491H188.657ZM189.236 65.1606V64.4139H191.769V65.1606H189.236ZM191.85 64.9192L191.063 64.7815L194.083 60.8055H195.008L191.85 64.9192Z" fill="var(--fill-0, white)"/>
<path id="Vector_18" d="M196.025 68.8491L199.727 60.8055H200.571L204.273 68.8491H203.37L199.97 61.2998H200.317L196.916 68.8491H196.025ZM197.483 66.7004L197.737 66.0108H202.445L202.699 66.7004H197.483Z" fill="var(--fill-0, white)"/>
<path id="Vector_19" d="M211.154 68.8491V66.1831L211.385 66.413H208.737C208.089 66.413 207.533 66.3019 207.071 66.0799C206.616 65.8579 206.265 65.5438 206.018 65.1375C205.779 64.7239 205.66 64.2297 205.66 63.6553C205.66 63.0427 205.791 62.5254 206.053 62.104C206.315 61.6752 206.685 61.3537 207.163 61.139C207.649 60.917 208.212 60.8055 208.852 60.8055H211.998V68.8491H211.154ZM205.66 68.8491L207.649 66.0224H208.528L206.574 68.8491H205.66ZM211.154 65.9417V61.2998L211.385 61.5411H208.887C208.131 61.5411 207.545 61.7212 207.129 62.0814C206.72 62.4338 206.516 62.9506 206.516 63.6323C206.516 64.2909 206.709 64.8004 207.094 65.1606C207.479 65.5129 208.05 65.6893 208.806 65.6893H211.385L211.154 65.9417Z" fill="var(--fill-0, white)"/>
<path id="Vector_20" d="M224.921 68.8491L221.809 64.8391L222.504 64.4254L225.904 68.8491H224.921ZM219.38 68.8491V60.8055H220.213V68.8491H219.38ZM219.959 65.1606V64.4139H222.492V65.1606H219.959ZM222.573 64.9192L221.786 64.7815L224.805 60.8055H225.731L222.573 64.9192Z" fill="var(--fill-0, white)"/>
<path id="Vector_21" d="M231.569 68.9182C230.96 68.9182 230.393 68.8182 229.869 68.6193C229.352 68.4124 228.901 68.125 228.516 67.7575C228.138 67.3821 227.841 66.9491 227.625 66.459C227.417 65.9611 227.313 65.4171 227.313 64.8275C227.313 64.2375 227.417 63.6977 227.625 63.2071C227.841 62.7092 228.138 62.2767 228.516 61.9087C228.901 61.5333 229.352 61.2463 229.869 61.0469C230.386 60.8401 230.953 60.7369 231.569 60.7369C232.179 60.7369 232.742 60.8401 233.258 61.0469C233.775 61.2463 234.222 61.5296 234.6 61.8972C234.986 62.2652 235.283 62.6977 235.491 63.1956C235.707 63.6935 235.815 64.2375 235.815 64.8275C235.815 65.4171 235.707 65.9611 235.491 66.459C235.283 66.9569 234.986 67.3899 234.6 67.7575C234.222 68.125 233.775 68.4124 233.258 68.6193C232.742 68.8182 232.179 68.9182 231.569 68.9182ZM231.569 68.1596C232.055 68.1596 232.502 68.079 232.911 67.9182C233.328 67.7496 233.686 67.5161 233.987 67.2172C234.295 66.9109 234.535 66.5585 234.704 66.1601C234.874 65.7543 234.958 65.3098 234.958 64.8275C234.958 64.3448 234.874 63.9045 234.704 63.5061C234.535 63.0998 234.295 62.7475 233.987 62.449C233.686 62.1427 233.328 61.9087 232.911 61.7479C232.502 61.5794 232.055 61.4951 231.569 61.4951C231.084 61.4951 230.633 61.5794 230.216 61.7479C229.8 61.9087 229.437 62.1427 229.129 62.449C228.828 62.7475 228.589 63.0998 228.412 63.5061C228.242 63.9045 228.157 64.3448 228.157 64.8275C228.157 65.3024 228.242 65.7428 228.412 66.1486C228.589 66.5548 228.828 66.9109 229.129 67.2172C229.437 67.5161 229.8 67.7496 230.216 67.9182C230.633 68.079 231.084 68.1596 231.569 68.1596Z" fill="var(--fill-0, white)"/>
<path id="Vector_22" d="M238.667 68.8491V60.8055H239.372L243.074 67.0794H242.704L246.371 60.8055H247.076V68.8491H246.255V62.0814H246.452L243.074 67.8266H242.67L239.269 62.0814H239.488V68.8491H238.667Z" fill="var(--fill-0, white)"/>
<path id="Vector_23" d="M250.615 68.8491V60.8055H257.428V68.8491H256.584V61.3113L256.803 61.5411H251.24L251.459 61.3113V68.8491H250.615Z" fill="var(--fill-0, white)"/>
<path id="Vector_24" d="M259.778 68.8491L263.48 60.8055H264.324L268.026 68.8491H267.124L263.723 61.2998H264.07L260.669 68.8491H259.778ZM261.236 66.7004L261.491 66.0108H266.198L266.453 66.7004H261.236Z" fill="var(--fill-0, white)"/>
<path id="Vector_25" d="M276.31 60.8055H277.154V68.8491H276.31V60.8055ZM271.243 68.8491H270.387V60.8055H271.243V68.8491ZM276.391 65.1375H271.151V64.3909H276.391V65.1375Z" fill="var(--fill-0, white)"/>
<path id="Vector_26" d="M280.697 68.8491V60.8055H281.542V67.47L286.724 60.8055H287.499V68.8491H286.655V62.1961L281.472 68.8491H280.697Z" fill="var(--fill-0, white)"/>
<path id="Vector_27" d="M295.934 68.8491V66.1831L296.165 66.413H293.517C292.869 66.413 292.313 66.3019 291.851 66.0799C291.396 65.8579 291.045 65.5438 290.798 65.1375C290.559 64.7239 290.439 64.2297 290.439 63.6553C290.439 63.0427 290.57 62.5254 290.833 62.104C291.095 61.6752 291.465 61.3537 291.943 61.139C292.429 60.917 292.992 60.8055 293.632 60.8055H296.778V68.8491H295.934ZM290.439 68.8491L292.429 66.0224H293.308L291.353 68.8491H290.439ZM295.934 65.9417V61.2998L296.165 61.5411H293.667C292.911 61.5411 292.325 61.7212 291.909 62.0814C291.5 62.4338 291.295 62.9506 291.295 63.6323C291.295 64.2909 291.488 64.8004 291.874 65.1606C292.259 65.5129 292.83 65.6893 293.586 65.6893H296.165L295.934 65.9417Z" fill="var(--fill-0, white)"/>
</g>
<defs>
<clipPath id="clip0_0_19">
<rect width="297" height="76" fill="white"/>
</clipPath>
</defs>
</svg>
