<svg preserveAspectRatio="none" width="100%" height="100%" overflow="visible" style="display: block;" viewBox="0 0 139 36" fill="none" xmlns="http://www.w3.org/2000/svg">
<g id="&#209;&#129;&#208;&#184;&#208;&#189;&#208;&#184;&#208;&#185; &#208;&#191;&#208;&#190;&#208;&#187;&#208;&#189;&#209;&#139;&#208;&#185; 2" clip-path="url(#clip0_0_61)">
<path id="Vector" d="M14.5662 19.3762L0 11.1154V27.5444L14.5662 35.8054V19.3762Z" fill="var(--fill-0, white)"/>
<path id="Vector_2" d="M17.2605 19.3762L31.8265 11.1154V27.5444L17.2605 35.8054V19.3762Z" fill="var(--fill-0, white)"/>
<path id="Vector_3" d="M15.929 -3.17524e-07L0.971112 8.59052L15.929 17.093L31.0744 8.59052L15.929 -3.17524e-07Z" fill="var(--fill-0, white)"/>
<path id="Vector_4" d="M50.9445 11.521L65.345 22.1341H59.5455L47.6554 13.057V22.1341H43.8624V2.55209H47.6554V10.124L58.9947 2.55209H64.8806L50.9445 11.521Z" fill="var(--fill-0, white)"/>
<path id="Vector_5" d="M102.724 2.54431L91.8808 19.1623C91.3377 20.1348 90.2991 20.8835 88.7646 21.4084C87.2458 21.941 85.5069 22.2035 83.5475 22.2035C83.1617 22.2035 82.8549 22.1956 82.6425 22.1801V19.1932C84.9165 19.1932 86.0497 18.8381 86.0497 18.1357C86.0497 17.9273 85.9631 17.7035 85.79 17.4719L76.9846 2.54431H81.0923L89.3705 16.5998L98.6088 2.54431H102.724Z" fill="var(--fill-0, white)"/>
<path id="Vector_6" d="M126.605 9.52957C130.099 9.52957 132.743 9.77657 134.529 10.2706C136.316 10.7645 137.496 11.4361 138.055 12.2851C138.637 13.1341 138.928 14.2224 138.928 15.5655V15.6427C138.928 16.7387 138.708 17.7498 138.259 18.6838C137.811 19.6177 136.741 20.459 135.057 21.2C133.388 21.941 130.87 22.3115 127.51 22.3115H116.226V2.72954H137.535V5.77065H120.019V9.52957H126.605ZM128.525 19.3707C130.855 19.3707 132.539 19.062 133.569 18.4445C134.616 17.8116 135.143 16.8622 135.143 15.6118C135.143 14.7859 134.923 14.1375 134.474 13.6821C134.05 13.2267 133.357 12.9026 132.405 12.7328C131.468 12.5398 130.178 12.4395 128.525 12.4395H120.011V19.3167C124.307 19.3167 126.92 19.3321 127.849 19.3707H128.525Z" fill="var(--fill-0, white)"/>
<path id="Vector_7" d="M46.9269 32.4223V29.1511H45.1134L45.0808 30.0764C45.0701 30.3631 45.0521 30.6388 45.0269 30.9037C45.0052 31.1649 44.9691 31.4007 44.9184 31.6113C44.8716 31.8181 44.8066 31.9868 44.7236 32.1175C44.6442 32.2479 44.5396 32.3243 44.4097 32.3459L43.9711 32.2643C44.1154 32.2717 44.2346 32.2189 44.3285 32.1065C44.4258 31.994 44.4999 31.8362 44.5503 31.6331C44.6045 31.4297 44.6442 31.1921 44.6694 30.9201C44.6946 30.6478 44.7127 30.3539 44.7236 30.0382L44.7669 28.8026H47.3222V32.4223H46.9269ZM43.8303 33.4671L43.8359 32.2643H47.8905V33.4671H47.517V32.6127H44.2094L44.2038 33.4671H43.8303Z" fill="var(--fill-0, white)"/>
<path id="Vector_8" d="M49.4441 30.5064H51.4472V30.8492H49.4441V30.5064ZM49.4873 32.2643H51.7665V32.6127H49.0866V28.8026H51.6852V29.1511H49.4873V32.2643Z" fill="var(--fill-0, white)"/>
<path id="Vector_9" d="M53.0342 32.6127V28.8026H54.6096C55.0103 28.8026 55.3242 28.8862 55.5516 29.0531C55.7827 29.2163 55.8981 29.4576 55.8981 29.777C55.8981 30.0927 55.7881 30.3321 55.5679 30.4955C55.3477 30.6552 55.0589 30.7348 54.7017 30.7348L54.7937 30.5989C55.216 30.5989 55.5373 30.6823 55.7573 30.8492C55.9775 31.0161 56.0875 31.2611 56.0875 31.584C56.0875 31.9106 55.9722 32.1646 55.7412 32.3459C55.5137 32.5237 55.171 32.6127 54.7125 32.6127H53.0342ZM53.4295 32.2916H54.7125C55.0337 32.2916 55.2774 32.2318 55.4434 32.112C55.6094 31.9922 55.6924 31.8072 55.6924 31.5567C55.6924 31.31 55.6094 31.1287 55.4434 31.0126C55.2774 30.8963 55.0337 30.8383 54.7125 30.8383H53.4295V32.2916ZM53.4295 30.528H54.588C54.8805 30.528 55.104 30.47 55.2593 30.3539C55.4182 30.2341 55.4976 30.0583 55.4976 29.8259C55.4976 29.5937 55.4182 29.4196 55.2593 29.3036C55.104 29.1838 54.8805 29.1238 54.588 29.1238H53.4295V30.528Z" fill="var(--fill-0, white)"/>
<path id="Vector_10" d="M57.8256 30.5064H59.8287V30.8492H57.8256V30.5064ZM57.8688 32.2643H60.148V32.6127H57.4681V28.8026H60.0667V29.1511H57.8688V32.2643Z" fill="var(--fill-0, white)"/>
<path id="Vector_11" d="M61.1397 32.6455C61.089 32.6455 61.0404 32.6417 60.9936 32.6345C60.9465 32.6308 60.8943 32.6217 60.8365 32.6073L60.8691 32.2479C60.9304 32.2625 60.99 32.2697 61.0475 32.2697C61.21 32.2697 61.3401 32.2063 61.4373 32.0793C61.5384 31.9486 61.6143 31.7492 61.6649 31.4806C61.7153 31.2085 61.7479 30.8601 61.7622 30.4355L61.8164 28.8026H64.3878V32.6127H63.9927V29.0422L64.0955 29.1511H62.0707L62.1683 29.0367L62.1196 30.4246C62.1051 30.8057 62.0781 31.1359 62.0384 31.4153C61.9987 31.6911 61.9409 31.9215 61.865 32.1065C61.7894 32.2879 61.6919 32.424 61.5728 32.5148C61.4536 32.6018 61.3093 32.6455 61.1397 32.6455Z" fill="var(--fill-0, white)"/>
<path id="Vector_12" d="M67.7073 32.6455C67.4221 32.6455 67.1569 32.5981 66.9114 32.5039C66.6698 32.4059 66.4585 32.2697 66.278 32.0956C66.1013 31.9178 65.9623 31.7127 65.8612 31.4806C65.7637 31.2447 65.7151 30.9871 65.7151 30.7078C65.7151 30.4283 65.7637 30.1726 65.8612 29.9402C65.9623 29.7044 66.1013 29.4995 66.278 29.3252C66.4585 29.1473 66.6698 29.0114 66.9114 28.9169C67.1533 28.819 67.4186 28.7701 67.7073 28.7701C67.9924 28.7701 68.2559 28.819 68.4978 28.9169C68.7396 29.0114 68.9489 29.1456 69.1256 29.3197C69.3061 29.494 69.4451 29.6989 69.5426 29.9348C69.6437 30.1706 69.6941 30.4283 69.6941 30.7078C69.6941 30.9871 69.6437 31.2447 69.5426 31.4806C69.4451 31.7164 69.3061 31.9215 69.1256 32.0956C68.9489 32.2697 68.7396 32.4059 68.4978 32.5039C68.2559 32.5981 67.9924 32.6455 67.7073 32.6455ZM67.7073 32.2861C67.9346 32.2861 68.1439 32.2479 68.3353 32.1718C68.5301 32.0919 68.6981 31.9813 68.8387 31.8397C68.983 31.6946 69.095 31.5277 69.1745 31.339C69.2539 31.1468 69.2936 30.9362 69.2936 30.7078C69.2936 30.4791 69.2539 30.2705 69.1745 30.0818C69.095 29.8894 68.983 29.7225 68.8387 29.5811C68.6981 29.436 68.5301 29.3252 68.3353 29.249C68.1439 29.1692 67.9346 29.1292 67.7073 29.1292C67.4799 29.1292 67.2689 29.1692 67.0739 29.249C66.8791 29.3252 66.7093 29.436 66.5649 29.5811C66.4244 29.7225 66.3124 29.8894 66.2294 30.0818C66.1499 30.2705 66.1102 30.4791 66.1102 30.7078C66.1102 30.9327 66.1499 31.1413 66.2294 31.3335C66.3124 31.526 66.4244 31.6946 66.5649 31.8397C66.7093 31.9813 66.8791 32.0919 67.0739 32.1718C67.2689 32.2479 67.4799 32.2861 67.7073 32.2861Z" fill="var(--fill-0, white)"/>
<path id="Vector_13" d="M71.029 32.6127V28.8026H74.2177V32.6127H73.8226V29.0422L73.9255 29.1511H71.3215L71.4244 29.0422V32.6127H71.029Z" fill="var(--fill-0, white)"/>
<path id="Vector_14" d="M76.2327 30.5064H78.2358V30.8492H76.2327V30.5064ZM76.276 32.2643H78.5551V32.6127H75.8755V28.8026H78.4739V29.1511H76.276V32.2643Z" fill="var(--fill-0, white)"/>
<path id="Vector_15" d="M79.823 32.6127V28.8026H81.2414C81.5624 28.8026 81.8386 28.8554 82.0696 28.9606C82.3005 29.0623 82.4774 29.2108 82.6001 29.407C82.7264 29.5992 82.7896 29.8333 82.7896 30.1091C82.7896 30.3775 82.7264 30.6098 82.6001 30.8057C82.4774 30.998 82.3005 31.1468 82.0696 31.2519C81.8386 31.3573 81.5624 31.4099 81.2414 31.4099H80.0448L80.2235 31.2194V32.6127H79.823ZM80.2235 31.2519L80.0448 31.056H81.2304C81.6095 31.056 81.8964 30.9744 82.0912 30.8112C82.2898 30.6443 82.3891 30.4102 82.3891 30.1091C82.3891 29.8043 82.2898 29.5684 82.0912 29.4015C81.8964 29.2346 81.6095 29.1511 81.2304 29.1511H80.0448L80.2235 28.9606V31.2519Z" fill="var(--fill-0, white)"/>
<path id="Vector_16" d="M85.6967 32.6455C85.4116 32.6455 85.1481 32.5981 84.9062 32.5039C84.6644 32.4059 84.4551 32.2697 84.2784 32.0956C84.1015 31.9215 83.9625 31.7164 83.8614 31.4806C83.7639 31.2447 83.7153 30.9871 83.7153 30.7078C83.7153 30.4283 83.7639 30.1706 83.8614 29.9348C83.9625 29.6989 84.1015 29.494 84.2784 29.3197C84.4587 29.1456 84.67 29.0114 84.9118 28.9169C85.1535 28.819 85.417 28.7701 85.7021 28.7701C85.9763 28.7701 86.2344 28.8172 86.4763 28.9115C86.7182 29.0023 86.9221 29.1401 87.0881 29.3252L86.8335 29.5811C86.6784 29.4214 86.5069 29.3071 86.3192 29.2381C86.1316 29.1657 85.9294 29.1292 85.713 29.1292C85.4857 29.1292 85.2744 29.1692 85.0796 29.249C84.8846 29.3252 84.715 29.436 84.5707 29.5811C84.4263 29.7225 84.3125 29.8894 84.2295 30.0818C84.1501 30.2705 84.1104 30.4791 84.1104 30.7078C84.1104 30.9362 84.1501 31.1468 84.2295 31.339C84.3125 31.5277 84.4263 31.6946 84.5707 31.8397C84.715 31.9813 84.8846 32.0919 85.0796 32.1718C85.2744 32.2479 85.4857 32.2861 85.713 32.2861C85.9294 32.2861 86.1316 32.2499 86.3192 32.1772C86.5069 32.1048 86.6784 31.9885 86.8335 31.829L87.0881 32.0847C86.9221 32.2697 86.7182 32.4096 86.4763 32.5039C86.2344 32.5981 85.9745 32.6455 85.6967 32.6455Z" fill="var(--fill-0, white)"/>
<path id="Vector_17" d="M90.8875 32.6127L89.4312 30.7132L89.7561 30.5173L91.3475 32.6127H90.8875ZM88.2942 32.6127V28.8026H88.684V32.6127H88.2942ZM88.5649 30.8655V30.5119H89.7505V30.8655H88.5649ZM89.7884 30.7512L89.4203 30.686L90.8333 28.8026H91.2663L89.7884 30.7512Z" fill="var(--fill-0, white)"/>
<path id="Vector_18" d="M91.7425 32.6127L93.4747 28.8026H93.8701L95.6023 32.6127H95.18L93.5885 29.0367H93.7509L92.1592 32.6127H91.7425ZM92.4245 31.5949L92.5437 31.2683H94.7469L94.8661 31.5949H92.4245Z" fill="var(--fill-0, white)"/>
<path id="Vector_19" d="M98.823 32.6127V31.3499L98.9312 31.4588H97.6916C97.3884 31.4588 97.1284 31.4062 96.912 31.301C96.6992 31.1959 96.5349 31.0471 96.4194 30.8546C96.3074 30.6587 96.2516 30.4246 96.2516 30.1525C96.2516 29.8623 96.3129 29.6173 96.4357 29.4177C96.5584 29.2145 96.7315 29.0623 96.9553 28.9606C97.1826 28.8554 97.4461 28.8026 97.7458 28.8026H99.2181V32.6127H98.823ZM96.2516 32.6127L97.1826 31.2737H97.5941L96.6793 32.6127H96.2516ZM98.823 31.2356V29.0367L98.9312 29.1511H97.7618C97.4082 29.1511 97.134 29.2364 96.939 29.407C96.7478 29.5739 96.6521 29.8187 96.6521 30.1416C96.6521 30.4536 96.7424 30.6949 96.9227 30.8655C97.1032 31.0324 97.3703 31.116 97.7241 31.116H98.9312L98.823 31.2356Z" fill="var(--fill-0, white)"/>
<path id="Vector_20" d="M105.266 32.6127L103.81 30.7132L104.135 30.5173L105.726 32.6127H105.266ZM102.673 32.6127V28.8026H103.063V32.6127H102.673ZM102.944 30.8655V30.5119H104.129V30.8655H102.944ZM104.167 30.7512L103.799 30.686L105.212 28.8026H105.645L104.167 30.7512Z" fill="var(--fill-0, white)"/>
<path id="Vector_21" d="M108.378 32.6455C108.092 32.6455 107.827 32.5981 107.582 32.5039C107.34 32.4059 107.129 32.2697 106.948 32.0956C106.772 31.9178 106.633 31.7127 106.532 31.4806C106.434 31.2447 106.385 30.9871 106.385 30.7078C106.385 30.4283 106.434 30.1726 106.532 29.9402C106.633 29.7044 106.772 29.4995 106.948 29.3252C107.129 29.1473 107.34 29.0114 107.582 28.9169C107.824 28.819 108.089 28.7701 108.378 28.7701C108.663 28.7701 108.926 28.819 109.168 28.9169C109.41 29.0114 109.619 29.1456 109.796 29.3197C109.976 29.494 110.115 29.6989 110.213 29.9348C110.314 30.1706 110.364 30.4283 110.364 30.7078C110.364 30.9871 110.314 31.2447 110.213 31.4806C110.115 31.7164 109.976 31.9215 109.796 32.0956C109.619 32.2697 109.41 32.4059 109.168 32.5039C108.926 32.5981 108.663 32.6455 108.378 32.6455ZM108.378 32.2861C108.605 32.2861 108.814 32.2479 109.006 32.1718C109.2 32.0919 109.368 31.9813 109.509 31.8397C109.653 31.6946 109.765 31.5277 109.845 31.339C109.924 31.1468 109.964 30.9362 109.964 30.7078C109.964 30.4791 109.924 30.2705 109.845 30.0818C109.765 29.8894 109.653 29.7225 109.509 29.5811C109.368 29.436 109.2 29.3252 109.006 29.249C108.814 29.1692 108.605 29.1292 108.378 29.1292C108.15 29.1292 107.939 29.1692 107.744 29.249C107.549 29.3252 107.38 29.436 107.235 29.5811C107.094 29.7225 106.983 29.8894 106.9 30.0818C106.82 30.2705 106.781 30.4791 106.781 30.7078C106.781 30.9327 106.82 31.1413 106.9 31.3335C106.983 31.526 107.094 31.6946 107.235 31.8397C107.38 31.9813 107.549 32.0919 107.744 32.1718C107.939 32.2479 108.15 32.2861 108.378 32.2861Z" fill="var(--fill-0, white)"/>
<path id="Vector_22" d="M111.699 32.6127V28.8026H112.03L113.762 31.7745H113.589L115.305 28.8026H115.635V32.6127H115.251V29.407H115.343L113.762 32.1284H113.573L111.981 29.407H112.084V32.6127H111.699Z" fill="var(--fill-0, white)"/>
<path id="Vector_23" d="M117.291 32.6127V28.8026H120.48V32.6127H120.085V29.0422L120.187 29.1511H117.584L117.686 29.0422V32.6127H117.291Z" fill="var(--fill-0, white)"/>
<path id="Vector_24" d="M121.58 32.6127L123.312 28.8026H123.707L125.44 32.6127H125.017L123.426 29.0367H123.588L121.997 32.6127H121.58ZM122.262 31.5949L122.381 31.2683H124.584L124.704 31.5949H122.262Z" fill="var(--fill-0, white)"/>
<path id="Vector_25" d="M129.317 28.8026H129.712V32.6127H129.317V28.8026ZM126.946 32.6127H126.545V28.8026H126.946V32.6127ZM129.355 30.8546H126.902V30.5009H129.355V30.8546Z" fill="var(--fill-0, white)"/>
<path id="Vector_26" d="M131.37 32.6127V28.8026H131.765V31.9595L134.191 28.8026H134.553V32.6127H134.158V29.4613L131.733 32.6127H131.37Z" fill="var(--fill-0, white)"/>
<path id="Vector_27" d="M138.501 32.6127V31.3499L138.609 31.4588H137.37C137.066 31.4588 136.807 31.4062 136.59 31.301C136.377 31.1959 136.213 31.0471 136.098 30.8546C135.986 30.6587 135.929 30.4246 135.929 30.1525C135.929 29.8623 135.991 29.6173 136.114 29.4177C136.236 29.2145 136.41 29.0623 136.633 28.9606C136.861 28.8554 137.124 28.8026 137.424 28.8026H138.896V32.6127H138.501ZM135.929 32.6127L136.861 31.2737H137.272L136.357 32.6127H135.929ZM138.501 31.2356V29.0367L138.609 29.1511H137.44C137.086 29.1511 136.812 29.2364 136.617 29.407C136.426 29.5739 136.33 29.8187 136.33 30.1416C136.33 30.4536 136.42 30.6949 136.601 30.8655C136.781 31.0324 137.048 31.116 137.402 31.116H138.609L138.501 31.2356Z" fill="var(--fill-0, white)"/>
</g>
<defs>
<clipPath id="clip0_0_61">
<rect width="139" height="36" fill="white"/>
</clipPath>
</defs>
</svg>
