<svg width="18" height="18" viewBox="0 0 18 18" fill="none" xmlns="http://www.w3.org/2000/svg">
<path d="M15.819 17.2792H15.7022C2.1928 16.5282 0.274673 5.5094 0.00654832 2.1466C-0.0150562 1.88514 0.0169218 1.62213 0.10065 1.37264C0.184378 1.12314 0.31821 0.892073 0.494479 0.692663C0.670748 0.493254 0.885988 0.329426 1.12787 0.210566C1.36975 0.0917065 1.63351 0.0201514 1.90405 6.23107e-07H5.69217C5.96756 -0.000257078 6.23667 0.0794248 6.46467 0.228725C6.69266 0.378025 6.86903 0.590064 6.97092 0.837376L8.01592 3.32292C8.11654 3.56452 8.14151 3.82938 8.08773 4.08459C8.03395 4.3398 7.90379 4.57411 7.71342 4.75842L6.24905 6.18727C6.47779 7.44383 7.1003 8.60215 8.03235 9.50551C8.9644 10.4089 10.161 11.0137 11.4603 11.2381L12.9522 9.80925C13.1457 9.62726 13.3904 9.50437 13.6557 9.45592C13.921 9.40746 14.1952 9.43558 14.444 9.53677L17.0359 10.5403C17.2879 10.6419 17.5029 10.8137 17.6535 11.0339C17.8041 11.254 17.8835 11.5125 17.8815 11.7764V15.2854C17.8815 15.8142 17.6642 16.3213 17.2775 16.6952C16.8907 17.0691 16.3661 17.2792 15.819 17.2792ZM2.06905 1.32917C1.88671 1.32917 1.71184 1.39919 1.58291 1.52382C1.45398 1.64845 1.38155 1.81749 1.38155 1.99375V2.04692C1.6978 5.98125 3.72592 15.2854 15.7778 15.95C15.8681 15.9554 15.9586 15.9435 16.0442 15.915C16.1298 15.8865 16.2086 15.842 16.2764 15.7839C16.3441 15.7259 16.3992 15.6555 16.4387 15.5768C16.4782 15.4981 16.5013 15.4126 16.5065 15.3253V11.7764L13.9147 10.7729L11.9415 12.667L11.6115 12.6271C5.6303 11.9027 4.81905 6.12081 4.81905 6.061L4.7778 5.742L6.7303 3.83465L5.69905 1.32917H2.06905Z" fill="white"/>
</svg>
