<svg preserveAspectRatio="none" width="100%" height="100%" overflow="visible" style="display: block;" viewBox="0 0 21 19" fill="none" xmlns="http://www.w3.org/2000/svg">
<path id="Vector" d="M20.1172 0.503906C20.2614 0.517596 20.3392 0.562833 20.3867 0.624023C20.44 0.692871 20.5268 0.873577 20.4922 1.30469L20.4912 1.3125C20.4651 1.71234 20.3462 2.62434 20.1797 3.8291L19.583 8.09961C19.2604 10.3065 18.925 12.6167 18.6699 14.375C18.5424 15.254 18.4349 15.9951 18.3594 16.5166C18.3216 16.7773 18.2918 16.9834 18.2715 17.124C18.2613 17.1943 18.2533 17.2487 18.248 17.2852C18.2454 17.3032 18.2435 17.317 18.2422 17.3262C18.2415 17.3308 18.2415 17.3346 18.2412 17.3369L18.2402 17.3389V17.3398L18.2383 17.3564L18.2363 17.3701C18.2363 17.3709 18.2366 17.3739 18.2363 17.377C18.2357 17.3832 18.2342 17.3941 18.2324 17.4082C18.2288 17.4372 18.223 17.4811 18.2129 17.5352C18.1923 17.6454 18.1571 17.7908 18.1006 17.9385C17.9901 18.2269 17.839 18.4197 17.6494 18.4951C16.8222 18.4621 16.0194 18.1417 15.3613 17.5654L15.3555 17.5596L15.3496 17.5547L14.5811 16.999C14.172 16.7059 13.6335 16.3188 13.0586 15.8975C11.9001 15.0484 10.6218 14.0793 9.94824 13.4551L9.92871 13.4365L9.90723 13.4199L9.85449 13.376C9.80398 13.3273 9.76 13.2661 9.72656 13.1943C9.68199 13.0986 9.65893 12.9896 9.66211 12.8779C9.66529 12.7663 9.69475 12.6598 9.74414 12.5684C9.79349 12.477 9.8596 12.4053 9.93359 12.3574L9.97852 12.3291L10.0166 12.291C11.9574 10.3456 14.2714 7.92705 15.6729 6.38965C15.8659 6.17801 16.0541 5.90305 16.1836 5.6377C16.2484 5.50492 16.3059 5.3592 16.3389 5.21387C16.3689 5.08143 16.3939 4.88209 16.3184 4.68359C16.2239 4.43526 16.0106 4.28485 15.7637 4.25098C15.5595 4.22302 15.3515 4.27498 15.1689 4.34375C14.7933 4.48529 14.2836 4.79268 13.6045 5.29883L13.6016 5.30078C11.698 6.74053 9.80746 8.13645 8.39258 9.17285C7.68521 9.691 7.09693 10.1195 6.68555 10.418C6.47986 10.5672 6.31799 10.6842 6.20801 10.7637C6.15316 10.8033 6.11033 10.8341 6.08203 10.8545C5.76729 11.0058 5.4311 11.0886 5.09082 11.0967C4.74068 11.105 4.3914 11.0357 4.06348 10.8916L4.04102 10.8818L4.01855 10.875L2.80273 10.4609C2.4025 10.3211 2.01818 10.1844 1.68359 10.0635C1.34949 9.94268 1.06568 9.83778 0.865234 9.76367C0.765013 9.72662 0.685005 9.69695 0.630859 9.67676C0.629193 9.67614 0.627595 9.67541 0.625977 9.6748C0.612753 9.6626 0.596413 9.64828 0.581055 9.63086C0.528704 9.57141 0.505542 9.52034 0.500977 9.4873C0.499867 9.47918 0.487113 9.42133 0.592773 9.30078C0.712232 9.16463 0.968306 8.9697 1.4834 8.74902L1.49219 8.74512L1.49316 8.74414C1.49428 8.74364 1.49599 8.74311 1.49805 8.74219C1.50245 8.74021 1.50898 8.73727 1.51758 8.7334C1.53526 8.72545 1.56227 8.71373 1.59668 8.69824C1.66549 8.66729 1.76646 8.62101 1.89648 8.5625C2.15679 8.44537 2.53256 8.2767 2.99316 8.06934C3.91436 7.65461 5.17657 7.08598 6.53906 6.47168C9.26349 5.24333 12.3919 3.83033 14.0039 3.09375L14.0117 3.09082C14.6237 2.79917 15.9742 2.18346 17.1768 1.63867C17.7768 1.36682 18.3384 1.1133 18.75 0.927734C18.9558 0.83494 19.1244 0.758644 19.2412 0.706055C19.2995 0.679817 19.3451 0.659403 19.376 0.645508C19.3914 0.638585 19.4032 0.633448 19.4111 0.629883L19.4131 0.62793L19.4141 0.628906C19.4156 0.628266 19.4185 0.626709 19.4229 0.625C19.4321 0.621349 19.4474 0.615618 19.4678 0.608398C19.5091 0.59372 19.5701 0.57336 19.6426 0.554687C19.794 0.515666 19.9671 0.489713 20.1172 0.503906Z" stroke="var(--stroke-0, white)"/>
</svg>
