<svg width="791" height="632" viewBox="0 0 791 632" fill="none" xmlns="http://www.w3.org/2000/svg">
  <defs>
    <clipPath id="projects-selector-building-clip">
      <path d="M223.574 629.867L206.574 117.368L329.074 2.36719L454.574 45.3681L590.074 95.8671L663.074 64.3258L747.074 95.8671L747.074 135.368L767.981 147.826L788.574 157.325L788.574 234.867L788.574 311.323L788.574 403.867L788.574 495.867L753.837 505.367L753.837 554.367L753.837 629.867L600.574 629.867L409.074 629.867L354.074 629.867L223.574 629.867ZM223.574 629.867L207.584 147.826L136.074 222.868L115.574 243.368L90.5737 234.867L60.5737 264.868L2.07442 317.367L2.0744 373.867L2.07439 445.367L2.07438 495.867L2.07439 554.367L18.5742 567.5L18.5742 629.867L102.574 629.867L223.574 629.867Z"/>
    </clipPath>
  </defs>

  <g clip-path="url(#projects-selector-building-clip)">
    <polygon
      class="projects-selector__section-fill"
      data-section-overlay="2"
      points="2,317 61,265 90,235 116,243 136,223 208,148 224,630 19,630 19,568 2,554"
    />
    <polygon
      class="projects-selector__section-fill"
      data-section-overlay="1"
      points="208,148 329,2 455,45 590,96 663,64 747,96 788,157 789,496 754,505 754,630 224,630"
    />
  </g>

  <path
    class="projects-selector__outline"
    d="M223.574 629.867L206.574 117.368L329.074 2.36719L454.574 45.3681L590.074 95.8671L663.074 64.3258L747.074 95.8671L747.074 135.368L767.981 147.826L788.574 157.325L788.574 234.867L788.574 311.323L788.574 403.867L788.574 495.867L753.837 505.367L753.837 554.367L753.837 629.867L600.574 629.867L409.074 629.867L354.074 629.867L223.574 629.867ZM223.574 629.867L207.584 147.826L136.074 222.868L115.574 243.368L90.5737 234.867L60.5737 264.868L2.07442 317.367L2.0744 373.867L2.07439 445.367L2.07438 495.867L2.07439 554.367L18.5742 567.5L18.5742 629.867L102.574 629.867L223.574 629.867Z"
  />
</svg>
