<svg width="1142" height="1015" viewBox="0 0 1142 1015" fill="none" xmlns="http://www.w3.org/2000/svg">
<path d="M345.618 298.517L345.618 328.974L318.118 356.017L275.118 404.017L254.618 424.517L229.618 416.016L199.618 446.017L141.119 498.516L141.119 555.016L141.119 626.516L141.119 677.016L141.119 735.516L157.619 748.648L157.619 811.016L241.619 811.016L362.619 811.016L493.119 811.016L548.119 811.016L739.619 811.016L892.882 811.016L892.882 735.516L892.882 686.516L927.619 677.016L927.619 585.016L927.619 492.472L927.619 416.016L927.619 338.474L907.026 328.974L886.119 316.516L886.119 277.016L802.118 245.474L729.118 277.016L593.618 226.517L468.119 183.516L345.618 298.517Z" fill="#009EAE" fill-opacity="0.4" stroke="#009EAE" stroke-width="4.14815"/>
</svg>
