<svg width="80" height="80" viewBox="0 0 80 80" fill="none" xmlns="http://www.w3.org/2000/svg">
  <path fill-rule="evenodd" clip-rule="evenodd" d="M59.836 20.2948H77.287C77.9862 20.2952 78.6566 20.573 79.1511 21.0672C79.6457 21.5615 79.9238 22.2316 79.9248 22.9307V52.8808C79.9199 53.5763 79.641 54.2419 79.1483 54.733C78.6557 55.224 77.9894 55.5008 77.2938 55.5035H63.2213C63.8108 62.0259 61.3612 69.9506 55.8179 78.9326C55.7344 79.0678 55.6253 79.1852 55.4964 79.2781C55.3676 79.3711 55.2219 79.4378 55.0673 79.4742C54.9128 79.5108 54.7524 79.5166 54.5958 79.4913C54.439 79.4659 54.2887 79.41 54.1535 79.3264C54.0183 79.243 53.9009 79.1339 53.808 79.0051C53.7152 78.8762 53.6485 78.7303 53.6119 78.5758C53.5753 78.4212 53.5695 78.261 53.5948 78.1042C53.6204 77.9474 53.6763 77.7972 53.7597 77.6622C57.9327 70.8997 61.5727 62.6871 60.8284 55.5035H45.3272C46.3961 62.1576 48.6925 63.6796 48.7274 63.6962C49.0042 63.8436 49.2129 64.0928 49.3098 64.391C49.4065 64.6892 49.3837 65.0133 49.2463 65.2952C49.1088 65.5771 48.8673 65.7946 48.5727 65.902C48.278 66.0094 47.9533 65.9981 47.6668 65.871C46.9708 65.5313 40.9295 61.9495 42.6713 40.785C42.709 40.2759 42.6397 39.7647 42.4675 39.2843C42.2955 38.8039 42.0245 38.3649 41.672 37.9957C41.2418 37.5362 40.7222 37.1692 40.1454 36.917C39.5685 36.6648 38.9464 36.5326 38.3167 36.5286C37.6923 36.5279 37.0743 36.6556 36.5013 36.904C35.9283 37.1523 35.4127 37.5161 34.9864 37.9724C34.6266 38.3463 34.3488 38.7914 34.1708 39.2787C33.9926 39.7662 33.9182 40.2854 33.9524 40.8032C34.0067 41.5568 34.0915 42.4083 34.1836 43.3315L34.1954 43.4509C34.7965 49.4539 35.7041 58.5224 31.183 63.8377C26.3208 69.5444 28.5988 77.9519 28.6221 78.0368C28.6662 78.1899 28.6797 78.3501 28.6617 78.5084C28.6438 78.6667 28.5946 78.8199 28.5173 78.9593C28.4399 79.0984 28.3359 79.221 28.211 79.32C28.0859 79.419 27.9428 79.492 27.7894 79.5354C27.681 79.5658 27.5689 79.5805 27.4564 79.5788C27.1924 79.5792 26.9355 79.493 26.725 79.3337C26.5146 79.1743 26.362 78.9504 26.2908 78.6962C26.1725 78.3016 23.6498 68.9564 29.3364 62.2774C30.8427 60.32 31.7663 57.9773 32.0007 55.5185H18.3895C17.6902 55.5176 17.0198 55.2394 16.5253 54.745C16.0309 54.2505 15.7527 53.5801 15.7518 52.8808V39.7758L3.5027 36.2689C2.27126 35.9131 1.23085 35.0839 0.608943 33.9632C-0.0129592 32.8423 -0.165751 31.5208 0.183978 30.2875L4.15877 16.4049L4.94641 13.6523L7.84884 3.50469C8.20318 2.27189 9.0322 1.23003 10.1539 0.607831C11.2756 -0.0143738 12.5984 -0.166092 13.8318 0.185977L57.0151 12.5483C58.2476 12.9027 59.2893 13.7314 59.9116 14.8526C60.5342 15.9739 60.6865 17.2962 60.3355 18.5297L59.836 20.2948ZM77.5069 28.689V22.9307C77.5066 22.8738 77.4842 22.819 77.4444 22.778C77.4048 22.7371 77.3507 22.7131 77.2938 22.711H71.6322C71.887 24.1867 72.586 25.5495 73.6358 26.6177C74.6853 27.6858 76.036 28.4083 77.5069 28.689ZM11.3295 2.71694C10.7677 3.02909 10.3525 3.55131 10.1751 4.16911L9.3758 6.96329L57.2217 20.6644L58.0209 17.8686C58.1084 17.5624 58.1347 17.2421 58.0983 16.9257C58.0621 16.6094 57.9637 16.3034 57.8091 16.0251C57.6545 15.7467 57.4465 15.5016 57.1971 15.3036C56.9479 15.1056 56.6619 14.9587 56.3558 14.8712L13.1724 2.50392C12.5542 2.32817 11.8914 2.40477 11.3295 2.71694ZM8.70974 9.28456L7.60238 13.1528L6.82307 15.907L54.6555 29.5981L56.5505 22.9775L8.70974 9.28456ZM18.1697 47.0909V52.8742V52.8808C18.1697 52.9097 18.1754 52.938 18.1864 52.9647C18.1975 52.9912 18.2137 53.0154 18.2341 53.0357C18.2546 53.056 18.2788 53.0719 18.3055 53.0828C18.3321 53.0937 18.3607 53.0992 18.3895 53.099H24.1777C23.9248 51.5974 23.2102 50.2118 22.1334 49.1352C21.0568 48.0584 19.6713 47.3439 18.1697 47.0909ZM26.6388 53.0922H32.2288V53.099C32.3191 50.1874 32.1956 47.2734 31.8592 44.3801L18.178 40.4618V44.6331C20.3267 44.9052 22.324 45.8838 23.8557 47.4152C25.3873 48.9465 26.3663 50.9437 26.6388 53.0922ZM35.5299 34.7119C36.4067 34.3309 37.3524 34.1343 38.3084 34.1341C39.2714 34.1348 40.2239 34.3345 41.1062 34.7204C41.9884 35.1065 42.7813 35.6704 43.4356 36.3771C44.0162 36.9917 44.4619 37.7211 44.7436 38.5185C45.0253 39.3159 45.1366 40.1634 45.0707 41.0064C44.9359 42.6483 44.8544 44.1653 44.811 45.5855L47.3537 46.3116C47.6598 46.3994 47.9804 46.4259 48.2966 46.3897C48.613 46.3534 48.9191 46.255 49.1976 46.1005C49.476 45.9457 49.7212 45.7378 49.9191 45.4883C50.1169 45.2389 50.2637 44.9527 50.3511 44.6464L53.9995 31.9277L6.15701 18.2366L2.50358 30.9454C2.32737 31.5636 2.40378 32.2265 2.71599 32.7885C3.02822 33.3504 3.55073 33.7656 4.16876 33.9427L31.6044 41.8023C31.5973 41.7181 31.5898 41.6331 31.5822 41.5484C31.5653 41.3583 31.5488 41.1698 31.536 40.9947C31.4773 40.1465 31.5958 39.2952 31.8842 38.4952C32.1727 37.6954 32.6247 36.9643 33.2114 36.3489C33.8637 35.6501 34.6529 35.093 35.5299 34.7119ZM44.7792 48.0901C44.7807 49.7645 44.8585 51.4381 45.0125 53.1055L69.1792 53.1007C69.4566 50.9788 70.4204 49.006 71.9237 47.4832C73.4269 45.9604 75.3871 44.9711 77.5052 44.6665V31.15C75.3869 30.8447 73.4266 29.8548 71.9235 28.3315C70.4202 26.8081 69.4564 24.8347 69.1792 22.7127H59.1432L57.2382 29.3733L56.6487 31.4366L52.6756 45.3192C52.3222 46.5521 51.4934 47.5942 50.3719 48.2165C49.2502 48.8389 47.9276 48.9904 46.6944 48.6379L44.7792 48.0901ZM71.6254 53.1055H77.287V53.099C77.316 53.0992 77.3445 53.0937 77.3712 53.0828C77.3978 53.0719 77.4221 53.056 77.4423 53.0357C77.4628 53.0154 77.4791 52.9912 77.4902 52.9647C77.5013 52.938 77.5069 52.9097 77.5069 52.8808V47.1226C76.0339 47.4021 74.6814 48.1249 73.6303 49.194C72.5792 50.2633 71.8797 51.628 71.6254 53.1055ZM9.41398 26.3842L24.6405 30.7422V30.7388C24.9496 30.827 25.211 31.0346 25.3672 31.3157C25.5233 31.5968 25.5614 31.9283 25.4731 32.2374C25.3847 32.5467 25.1772 32.8081 24.8962 32.9641C24.6151 33.1202 24.2835 33.1583 23.9744 33.07L8.74792 28.7155C8.43877 28.6272 8.17738 28.4197 8.02123 28.1386C7.8651 27.8577 7.827 27.526 7.91532 27.2169C8.00365 26.9078 8.21117 26.6464 8.49222 26.4901C8.77327 26.3341 9.10486 26.296 9.41398 26.3842ZM62.4166 33.8851C63.2121 33.3529 64.1475 33.0687 65.1045 33.0684C66.3858 33.0697 67.6144 33.5786 68.5212 34.4836C69.4281 35.3887 69.9396 36.6161 69.9436 37.8975C69.9453 38.8545 69.6628 39.7904 69.1325 40.587C68.602 41.3835 67.8472 42.0049 66.9635 42.3724C66.0799 42.7397 65.1069 42.8368 64.1682 42.6513C63.2294 42.4657 62.3667 42.0058 61.6891 41.3298C61.0117 40.6537 60.5501 39.7921 60.3625 38.8535C60.1751 37.9151 60.2701 36.9422 60.6358 36.0577C61.0014 35.1731 61.6211 34.4171 62.4166 33.8851ZM63.7618 39.9155C64.1591 40.1812 64.6264 40.3232 65.1045 40.3236C65.746 40.3232 66.3612 40.0682 66.8149 39.6145C67.2684 39.1608 67.5237 38.5457 67.524 37.904C67.5237 37.4261 67.3817 36.9589 67.1158 36.5615C66.85 36.1641 66.4724 35.8545 66.0307 35.6716C65.589 35.4888 65.103 35.4411 64.6341 35.5345C64.1652 35.6278 63.7345 35.858 63.3965 36.1961C63.0585 36.5341 62.8283 36.9647 62.7349 37.4336C62.6414 37.9025 62.6893 38.3885 62.872 38.8302C63.0547 39.2719 63.3644 39.6496 63.7618 39.9155Z" fill="url(#paint0_linear_2216_4178)"/>
  <defs>
    <linearGradient id="paint0_linear_2216_4178" x1="36.2758" y1="1.89115" x2="83.5366" y2="78.6331" gradientUnits="userSpaceOnUse">
      <stop stop-color="white"/>
      <stop offset="1" stop-color="white"/>
    </linearGradient>
  </defs>
</svg>
