<svg width="80" height="80" viewBox="0 0 80 80" fill="none" xmlns="http://www.w3.org/2000/svg">
  <g clip-path="url(#clip0_2227_18086)">
    <path d="M54.2862 47.7879H44.9331C44.5795 47.7879 44.2404 47.9283 43.9904 48.1783C43.7404 48.4283 43.5997 48.7675 43.5997 49.121V56.9156C43.5997 57.2691 43.7404 57.6083 43.9904 57.8583C44.2404 58.1085 44.5795 58.2489 44.9331 58.2489H54.2862C54.6397 58.2489 54.9789 58.1085 55.2289 57.8583C55.4791 57.6083 55.6195 57.2691 55.6195 56.9156V49.121C55.6195 48.7675 55.4791 48.4283 55.2289 48.1783C54.9789 47.9283 54.6397 47.7879 54.2862 47.7879ZM52.9529 55.5823H46.2664V50.4543H52.9529V55.5823ZM68.2245 47.7879H58.8714C58.5179 47.7879 58.1787 47.9283 57.9287 48.1783C57.6787 48.4283 57.5381 48.7675 57.5381 49.121V56.9156C57.5381 57.2691 57.6787 57.6083 57.9287 57.8583C58.1787 58.1085 58.5179 58.2489 58.8714 58.2489H68.2245C68.5783 58.2489 68.9172 58.1085 69.1674 57.8583C69.4174 57.6083 69.5579 57.2691 69.5579 56.9156V49.121C69.5579 48.7675 69.4174 48.4283 69.1674 48.1783C68.9172 47.9283 68.5783 47.7879 68.2245 47.7879ZM66.8912 55.5823H60.2047V50.4543H66.8912V55.5823ZM54.2862 35.1135H44.9331C44.5795 35.1135 44.2404 35.2539 43.9904 35.5039C43.7404 35.7539 43.5997 36.0931 43.5997 36.4466V44.2412C43.5997 44.5948 43.7404 44.9339 43.9904 45.1839C44.2404 45.4341 44.5795 45.5746 44.9331 45.5746H54.2862C54.6397 45.5746 54.9789 45.4341 55.2289 45.1839C55.4791 44.9339 55.6195 44.5948 55.6195 44.2412V36.4466C55.6195 36.0931 55.4791 35.7539 55.2289 35.5039C54.9789 35.2539 54.6397 35.1135 54.2862 35.1135ZM52.9529 42.9079H46.2664V37.78H52.9529V42.9079ZM68.2245 35.1135H58.8714C58.5179 35.1135 58.1787 35.2539 57.9287 35.5039C57.6787 35.7539 57.5381 36.0931 57.5381 36.4466V44.2412C57.5381 44.5948 57.6787 44.9339 57.9287 45.1839C58.1787 45.4341 58.5179 45.5746 58.8714 45.5746H68.2245C68.5783 45.5746 68.9172 45.4341 69.1674 45.1839C69.4174 44.9339 69.5579 44.5948 69.5579 44.2412V36.4466C69.5579 36.0931 69.4174 35.7539 69.1674 35.5039C68.9172 35.2539 68.5783 35.1135 68.2245 35.1135ZM66.8912 42.9079H60.2047V37.78H66.8912V42.9079ZM54.2862 22.9004H44.9331C44.5795 22.9004 44.2404 23.0408 43.9904 23.2908C43.7404 23.541 43.5997 23.88 43.5997 24.2337V32.0281C43.5997 32.3818 43.7404 32.721 43.9904 32.971C44.2404 33.221 44.5795 33.3614 44.9331 33.3614H54.2862C54.6397 33.3614 54.9789 33.221 55.2289 32.971C55.4791 32.721 55.6195 32.3818 55.6195 32.0281V24.2337C55.6195 23.88 55.4791 23.541 55.2289 23.2908C54.9789 23.0408 54.6397 22.9004 54.2862 22.9004ZM52.9529 30.695H46.2664V25.5671H52.9529V30.695ZM57.5381 24.6016V32.3962C57.5381 32.7498 57.6787 33.0889 57.9287 33.3389C58.1787 33.5889 58.5179 33.7296 58.8714 33.7296H68.2245C68.5783 33.7296 68.9172 33.5889 69.1674 33.3389C69.4174 33.0889 69.5579 32.7498 69.5579 32.3962V24.6016C69.5579 24.2481 69.4174 23.9089 69.1674 23.6589C68.9172 23.4089 68.5783 23.2683 68.2245 23.2683H58.8714C58.5179 23.2683 58.1787 23.4089 57.9287 23.6589C57.6787 23.9089 57.5381 24.2481 57.5381 24.6016ZM60.2047 25.935H66.8912V31.0629H60.2047V25.935Z" fill="url(#paint0_linear_2227_18086)"/>
    <path d="M3.85413 78.6648C3.85413 79.0185 3.9946 79.3575 4.24464 79.6077C4.49468 79.8577 4.83382 79.9981 5.18743 79.9981H72.5218C72.8756 79.9981 73.2145 79.8577 73.4648 79.6077C73.7148 79.3575 73.8552 79.0185 73.8552 78.6648V19.9995H74.8125C75.166 19.9995 75.5052 19.8591 75.7554 19.609C76.0054 19.359 76.1458 19.0199 76.1458 18.6662V13.3784C76.1458 13.0248 76.0054 12.6856 75.7554 12.4356C75.5052 12.1855 75.166 12.0451 74.8125 12.0451H62.0262V1.3333C62.0262 0.97969 61.8856 0.640558 61.6356 0.390515C61.3856 0.140473 61.0464 0 60.6929 0H18.5205C18.4685 0 18.4258 0.0266663 18.3751 0.0333327C18.2818 0.0439992 18.1938 0.0653319 18.1045 0.0946646C18.0365 0.117331 17.9685 0.131997 17.9071 0.16533C17.7857 0.22741 17.6746 0.307917 17.5778 0.403992L17.5098 0.47199L17.5071 0.473323L4.24612 13.7224C4.13649 13.836 4.048 13.9683 3.98479 14.113C3.97679 14.1303 3.96212 14.1423 3.95546 14.1597C3.94346 14.189 3.94612 14.221 3.93546 14.2503C3.90023 14.3565 3.87872 14.4667 3.87146 14.5783C3.87013 14.6077 3.85413 14.6357 3.85413 14.665V78.6648ZM13.0499 8.69579L17.1871 4.56256V13.333H8.40869L13.0499 8.69579ZM51.4704 65.3692H61.6862V77.3275H51.4704V65.3692ZM71.1885 77.3315H64.3527V65.3692H65.5193C65.8731 65.3692 66.212 65.2288 66.4623 64.9785C66.7123 64.7285 66.8527 64.3894 66.8527 64.0358C66.8527 63.6823 66.7123 63.3431 66.4623 63.0931C66.212 62.8431 65.8731 62.7025 65.5193 62.7025H47.637C47.2835 62.7025 46.9443 62.8431 46.6943 63.0931C46.4443 63.3431 46.3039 63.6823 46.3039 64.0358C46.3039 64.3894 46.4443 64.7285 46.6943 64.9785C46.9443 65.2288 47.2835 65.3692 47.637 65.3692H48.8037V77.3315H41.9718V19.9995H71.1872L71.1885 77.3315ZM73.4791 17.3329H72.7085C72.6466 17.3244 72.5843 17.3199 72.5218 17.3196H40.636C40.5739 17.3193 40.512 17.3237 40.4506 17.3329H39.872V14.7117H73.4779L73.4791 17.3329ZM59.3595 12.0397H38.5333C38.1798 12.0397 37.8406 12.1802 37.5906 12.4302C37.3406 12.6803 37.2 13.0194 37.2 13.373V18.6662C37.2 19.0199 37.3406 19.359 37.5906 19.609C37.8406 19.8591 38.1798 19.9995 38.5333 19.9995H39.3039V25.8487H17.3525C16.9989 25.8487 16.6597 25.9892 16.4097 26.2392C16.1596 26.4894 16.0192 26.8283 16.0192 27.1821C16.0192 27.5356 16.1596 27.8748 16.4097 28.1248C16.6597 28.3748 16.9989 28.5154 17.3525 28.5154H39.3039V32.6446H17.3525C16.9989 32.6446 16.6597 32.785 16.4097 33.035C16.1596 33.2852 16.0192 33.6242 16.0192 33.9779C16.0192 34.3315 16.1596 34.6706 16.4097 34.9206C16.6597 35.1706 16.9989 35.3112 17.3525 35.3112H39.3039V39.4404H17.3525C16.9989 39.4404 16.6597 39.5808 16.4097 39.831C16.1596 40.081 16.0192 40.4202 16.0192 40.7738C16.0192 41.1273 16.1596 41.4665 16.4097 41.7165C16.6597 41.9665 16.9989 42.1071 17.3525 42.1071H39.3039V46.2363H17.3525C16.9989 46.2363 16.6597 46.3767 16.4097 46.6269C16.1596 46.8769 16.0192 47.216 16.0192 47.5696C16.0192 47.9231 16.1596 48.2623 16.4097 48.5123C16.6597 48.7625 16.9989 48.9029 17.3525 48.9029H39.3039V53.0321H17.3525C16.9989 53.0321 16.6597 53.1725 16.4097 53.4227C16.1596 53.6727 16.0192 54.0119 16.0192 54.3654C16.0192 54.719 16.1596 55.0581 16.4097 55.3081C16.6597 55.5583 16.9989 55.6987 17.3525 55.6987H39.3039V59.8279H17.3525C16.9989 59.8279 16.6597 59.9683 16.4097 60.2185C16.1596 60.4685 16.0192 60.8077 16.0192 61.1613C16.0192 61.5148 16.1596 61.854 16.4097 62.104C16.6597 62.3542 16.9989 62.4946 17.3525 62.4946H39.3039V77.3329H6.52073V15.9996H18.5205C18.8741 15.9996 19.2132 15.8592 19.4633 15.6091C19.7133 15.3591 19.8538 15.0199 19.8538 14.6663V2.6666H59.3595V12.0397Z" fill="url(#paint1_linear_2227_18086)"/>
  </g>
  <defs>
    <linearGradient id="paint0_linear_2227_18086" x1="55.3814" y1="23.7404" x2="78.5476" y2="51.245" gradientUnits="userSpaceOnUse">
      <stop stop-color="white"/>
      <stop offset="1" stop-color="white"/>
    </linearGradient>
    <linearGradient id="paint1_linear_2227_18086" x1="36.6654" y1="1.90113" x2="86.2606" y2="74.3604" gradientUnits="userSpaceOnUse">
      <stop stop-color="white"/>
      <stop offset="1" stop-color="white"/>
    </linearGradient>
    <clipPath id="clip0_2227_18086">
      <rect width="72.2917" height="80" fill="white" transform="translate(3.85413)"/>
    </clipPath>
  </defs>
</svg>
