<svg width="80" height="78" viewBox="0 0 80 78" fill="none" xmlns="http://www.w3.org/2000/svg">
  <path fill-rule="evenodd" clip-rule="evenodd" d="M32.0001 65.3333H37.3734C37.7269 65.3333 38.0661 65.4738 38.3162 65.7238C38.5662 65.9738 38.7067 66.313 38.7067 66.6667C38.7067 67.0203 38.5662 67.3595 38.3162 67.6095C38.0661 67.8595 37.7269 68 37.3734 68H1.33333C0.979712 68 0.640572 67.8595 0.390524 67.6095C0.140475 67.3595 0 67.0203 0 66.6667C0 66.313 0.140475 65.9738 0.390524 65.7238C0.640572 65.4738 0.979712 65.3333 1.33333 65.3333H2.66667V8C2.66737 7.29297 2.94855 6.6151 3.4485 6.11517C3.94844 5.61522 4.6263 5.33403 5.33334 5.33333H16V1.33333C16 0.979712 16.1405 0.640573 16.3905 0.390525C16.6406 0.140476 16.9797 0 17.3334 0C17.6869 0 18.0261 0.140476 18.2762 0.390525C18.5262 0.640573 18.6667 0.979712 18.6667 1.33333V5.33333H29.3334C30.0404 5.33403 30.7182 5.61522 31.2182 6.11517C31.7181 6.6151 31.9992 7.29297 32.0001 8V14.6667H41.3334V10.6667C41.3334 10.313 41.4739 9.9739 41.7239 9.72385C41.9739 9.47382 42.3131 9.33333 42.6667 9.33333C43.0202 9.33333 43.3594 9.47382 43.6096 9.72385C43.8596 9.9739 44.0001 10.313 44.0001 10.6667V14.6667H53.3334C54.0404 14.6674 54.7182 14.9485 55.2182 15.4485C55.7181 15.9484 55.9992 16.6263 56.0001 17.3333V21.3333H58.6667C59.3737 21.334 60.0516 21.6152 60.5516 22.1152C61.0514 22.6152 61.3326 23.293 61.3334 24V42.8133C61.3334 43.167 61.1929 43.5062 60.9429 43.7562C60.6927 44.0062 60.3536 44.1467 60.0001 44.1467C59.6464 44.1467 59.3072 44.0062 59.0572 43.7562C58.8072 43.5062 58.6667 43.167 58.6667 42.8133V24H32.0001V65.3333ZM53.3334 21.3333V17.3333H32.0001V21.3333H53.3334ZM29.3334 65.3333V8H5.33334V65.3333H10.6667V52C10.6667 51.6463 10.8071 51.3072 11.0572 51.0572C11.3072 50.8072 11.6464 50.6667 12 50.6667H21.3334C21.6869 50.6667 22.0261 50.8072 22.2762 51.0572C22.5262 51.3072 22.6667 51.6463 22.6667 52V65.3333H29.3334ZM13.3333 53.3333V65.3333H20.0001V53.3333H13.3333ZM55.2196 28.7818C55.7194 29.2818 56.0006 29.9597 56.0014 30.6667V34.6667C56.0006 35.3737 55.7194 36.0515 55.2196 36.5515C54.7196 37.0515 54.0417 37.3327 53.3347 37.3333H49.3347C48.6277 37.3327 47.9497 37.0515 47.4499 36.5515C46.9499 36.0515 46.6687 35.3737 46.6681 34.6667V30.6667C46.6687 29.9597 46.9499 29.2818 47.4499 28.7818C47.9497 28.2818 48.6277 28.0007 49.3347 28H53.3347C54.0417 28.0007 54.7196 28.2818 55.2196 28.7818ZM49.3347 34.6667H53.3347V30.6667H49.3347V34.6667ZM55.2114 44.0282C55.0404 44.105 54.8554 44.1453 54.6681 44.1467C54.4806 44.1453 54.2956 44.105 54.1246 44.0282C53.9537 43.9513 53.8006 43.8398 53.6752 43.7005C53.5497 43.5613 53.4547 43.3975 53.3961 43.2195C53.3374 43.0415 53.3166 42.8532 53.3347 42.6667H49.3347C49.3534 42.853 49.3327 43.0412 49.2742 43.219C49.2157 43.3968 49.1206 43.5605 48.9949 43.6993C48.8694 43.8382 48.7161 43.949 48.5449 44.025C48.3737 44.101 48.1886 44.1402 48.0014 44.1402C47.8141 44.1402 47.6289 44.101 47.4579 44.025C47.2867 43.949 47.1334 43.8382 47.0077 43.6993C46.8821 43.5605 46.7871 43.3968 46.7284 43.219C46.6699 43.0412 46.6494 42.853 46.6681 42.6667C46.6687 41.9597 46.9499 41.2818 47.4499 40.7818C47.9497 40.2818 48.6277 40.0007 49.3347 40H53.3347C54.0417 40.0007 54.7196 40.2818 55.2196 40.7818C55.7194 41.2818 56.0006 41.9597 56.0014 42.6667C56.0196 42.8532 55.9986 43.0415 55.9399 43.2195C55.8814 43.3975 55.7862 43.5613 55.6609 43.7005C55.5354 43.8398 55.3824 43.9513 55.2114 44.0282ZM43.2196 28.7818C43.7194 29.2818 44.0006 29.9597 44.0014 30.6667V34.6667C44.0006 35.3737 43.7194 36.0515 43.2196 36.5515C42.7196 37.0515 42.0417 37.3327 41.3347 37.3333H37.3347C36.6277 37.3327 35.9497 37.0515 35.4499 36.5515C34.9499 36.0515 34.6687 35.3737 34.6681 34.6667V30.6667C34.6687 29.9597 34.9499 29.2818 35.4499 28.7818C35.9497 28.2818 36.6277 28.0007 37.3347 28H41.3347C42.0417 28.0007 42.7196 28.2818 43.2196 28.7818ZM37.3347 34.6667H41.3347V30.6667H37.3347V34.6667ZM43.2114 44.0282C43.0404 44.105 42.8554 44.1453 42.6681 44.1467C42.4806 44.1453 42.2956 44.105 42.1246 44.0282C41.9537 43.9513 41.8006 43.8398 41.6752 43.7005C41.5497 43.5613 41.4547 43.3975 41.3961 43.2195C41.3374 43.0415 41.3166 42.8532 41.3347 42.6667H37.3347V46.6667C37.6882 46.6648 38.0281 46.8037 38.2794 47.0525C38.5307 47.3013 38.6729 47.6397 38.6747 47.9933C38.6764 48.347 38.5377 48.6868 38.2889 48.9382C38.0401 49.1893 37.7016 49.3315 37.3481 49.3333C36.9969 49.3343 36.6491 49.2662 36.3242 49.1327C35.9996 48.9993 35.7042 48.8032 35.4554 48.5555C35.2064 48.3078 35.0087 48.0135 34.8737 47.6893C34.7386 47.3653 34.6687 47.0178 34.6681 46.6667V42.6667C34.6687 41.9597 34.9499 41.2818 35.4499 40.7818C35.9497 40.2818 36.6277 40.0007 37.3347 40H41.3347C42.0417 40.0007 42.7196 40.2818 43.2196 40.7818C43.7194 41.2818 44.0006 41.9597 44.0014 42.6667C44.0196 42.8532 43.9986 43.0415 43.9399 43.2195C43.8814 43.3975 43.7862 43.5613 43.6609 43.7005C43.5354 43.8398 43.3824 43.9513 43.2114 44.0282ZM34.6681 54.6667C34.4574 52.4667 38.2774 50.6293 38.7281 53.3333C38.7346 53.505 38.7054 53.6763 38.6446 53.837C38.5837 53.9978 38.4912 54.1447 38.3727 54.269C38.2541 54.3933 38.1117 54.4927 37.9541 54.561C37.7962 54.6292 37.6266 54.6652 37.4547 54.6667L37.3347 58.6667H41.3347V57.5467C41.3347 57.193 41.4752 56.8538 41.7252 56.6038C41.9752 56.3538 42.3144 56.2133 42.6681 56.2133C43.0216 56.2133 43.3607 56.3538 43.6109 56.6038C43.8609 56.8538 44.0014 57.193 44.0014 57.5467V58.6667C44.0006 59.3737 43.7194 60.0515 43.2196 60.5515C42.7196 61.0515 42.0417 61.3327 41.3347 61.3333H37.3347C36.6277 61.3327 35.9497 61.0515 35.4499 60.5515C34.9499 60.0515 34.6687 59.3737 34.6681 58.6667V54.6667ZM24.0014 20H21.3347C20.6277 19.9993 19.9497 19.7182 19.4499 19.2182C18.9499 18.7182 18.6687 18.0403 18.6681 17.3333V13.3333C18.6687 12.6263 18.9499 11.9484 19.4499 11.4485C19.9497 10.9485 20.6277 10.6674 21.3347 10.6667H24.0014C24.7084 10.6674 25.3862 10.9485 25.8862 11.4485C26.3861 11.9484 26.6672 12.6263 26.6681 13.3333V17.3333C26.6672 18.0403 26.3861 18.7182 25.8862 19.2182C25.3862 19.7182 24.7084 19.9993 24.0014 20ZM24.0014 13.3333H21.3347V17.3333H24.0014V13.3333ZM24.0014 32H21.3347C20.6277 31.9993 19.9497 31.7182 19.4499 31.2182C18.9499 30.7182 18.6687 30.0403 18.6681 29.3333V25.3333C18.6687 24.6263 18.9499 23.9485 19.4499 23.4485C19.9497 22.9485 20.6277 22.6673 21.3347 22.6667H24.0014C24.7084 22.6673 25.3862 22.9485 25.8862 23.4485C26.3861 23.9485 26.6672 24.6263 26.6681 25.3333V29.3333C26.6672 30.0403 26.3861 30.7182 25.8862 31.2182C25.3862 31.7182 24.7084 31.9993 24.0014 32ZM24.0014 25.3333H21.3347V29.3333H24.0014V25.3333ZM24.0014 44H21.3347C20.6277 43.9993 19.9497 43.7182 19.4499 43.2182C18.9499 42.7182 18.6687 42.0403 18.6681 41.3333V37.3333C18.6687 36.6263 18.9499 35.9485 19.4499 35.4485C19.9497 34.9485 20.6277 34.6673 21.3347 34.6667H24.0014C24.7084 34.6673 25.3862 34.9485 25.8862 35.4485C26.3861 35.9485 26.6672 36.6263 26.6681 37.3333V41.3333C26.6672 42.0403 26.3861 42.7182 25.8862 43.2182C25.3862 43.7182 24.7084 43.9993 24.0014 44ZM24.0014 37.3333H21.3347V41.3333H24.0014V37.3333ZM13.3347 20H10.668C9.96097 19.9993 9.2831 19.7182 8.78317 19.2182C8.28322 18.7182 8.00204 18.0403 8.00134 17.3333V13.3333C8.00204 12.6263 8.28322 11.9484 8.78317 11.4485C9.2831 10.9485 9.96097 10.6674 10.668 10.6667H13.3347C14.0417 10.6674 14.7196 10.9485 15.2195 11.4485C15.7195 11.9484 16.0006 12.6263 16.0013 13.3333V17.3333C16.0006 18.0403 15.7195 18.7182 15.2195 19.2182C14.7196 19.7182 14.0417 19.9993 13.3347 20ZM13.3347 13.3333H10.668V17.3333H13.3347V13.3333ZM13.3347 32H10.668C9.96097 31.9993 9.2831 31.7182 8.78317 31.2182C8.28322 30.7182 8.00204 30.0403 8.00134 29.3333V25.3333C8.00204 24.6263 8.28322 23.9485 8.78317 23.4485C9.2831 22.9485 9.96097 22.6673 10.668 22.6667H13.3347C14.0417 22.6673 14.7196 22.9485 15.2195 23.4485C15.7195 23.9485 16.0006 24.6263 16.0013 25.3333V29.3333C16.0006 30.0403 15.7195 30.7182 15.2195 31.2182C14.7196 31.7182 14.0417 31.9993 13.3347 32ZM13.3347 25.3333H10.668V29.3333H13.3347V25.3333ZM13.3347 44H10.668C9.96097 43.9993 9.2831 43.7182 8.78317 43.2182C8.28322 42.7182 8.00204 42.0403 8.00134 41.3333V37.3333C8.00204 36.6263 8.28322 35.9485 8.78317 35.4485C9.2831 34.9485 9.96097 34.6673 10.668 34.6667H13.3347C14.0417 34.6673 14.7196 34.9485 15.2195 35.4485C15.7195 35.9485 16.0006 36.6263 16.0013 37.3333V41.3333C16.0006 42.0403 15.7195 42.7182 15.2195 43.2182C14.7196 43.7182 14.0417 43.9993 13.3347 44ZM13.3347 37.3333H10.668V41.3333H13.3347V37.3333ZM78.7454 47.7947L68.1814 40.4747C67.7789 40.2045 67.3109 40.0483 66.8269 40.0228C66.3427 39.9972 65.8609 40.1032 65.4322 40.3295C65.0036 40.5558 64.6442 40.8938 64.3922 41.308C64.1404 41.722 64.0052 42.1967 64.0014 42.6813V45.4827H42.6681C41.9592 45.4852 41.2804 45.7687 40.7804 46.2712C40.2804 46.7737 40.0002 47.4538 40.0014 48.1627V52.1987C40.0002 52.9075 40.2804 53.5877 40.7804 54.0902C41.2804 54.5927 41.9592 54.8762 42.6681 54.8787L64.0014 54.8907V57.3173C64.0052 57.802 64.1404 58.2767 64.3922 58.6907C64.6442 59.1048 65.0036 59.4428 65.4322 59.6692C65.8609 59.8955 66.3427 60.0015 66.8269 59.9758C67.3109 59.9503 67.7789 59.7942 68.1814 59.524L78.7454 52.2053C79.0972 51.9553 79.3842 51.6245 79.5824 51.2408C79.7804 50.8572 79.8837 50.4318 79.8837 50C79.8837 49.5682 79.7804 49.1428 79.5824 48.7592C79.3842 48.3755 79.0972 48.0447 78.7454 47.7947ZM77.2267 50.0133L66.6667 57.3187V54.8907C66.6677 54.1818 66.3876 53.5017 65.8876 52.9992C65.3877 52.4967 64.7087 52.2132 64.0001 52.2107L42.6667 52.1987V48.1493H64.0001C64.7085 48.1468 65.3872 47.8635 65.8871 47.3613C66.3871 46.8592 66.6674 46.1792 66.6667 45.4707L66.6641 42.6667C66.6641 42.6667 77.2267 49.9867 77.2267 50.0133ZM55.8974 62.804L77.2307 62.816C77.9394 62.8185 78.6184 63.102 79.1182 63.6045C79.6182 64.107 79.8984 64.7872 79.8974 65.496V69.532C79.8984 70.2408 79.6182 70.921 79.1182 71.4235C78.6184 71.926 77.9394 72.2095 77.2307 72.212H55.8974V74.652C55.8934 75.1367 55.7584 75.6113 55.5064 76.0253C55.2544 76.4395 54.8951 76.7775 54.4664 77.0038C54.0379 77.2302 53.5559 77.3362 53.0719 77.3105C52.5879 77.285 52.1197 77.1288 51.7174 76.8587L41.1534 69.5387C40.8011 69.2888 40.5139 68.9582 40.3157 68.5745C40.1174 68.1908 40.0141 67.7652 40.0141 67.3333C40.0141 66.9015 40.1174 66.4758 40.3157 66.0922C40.5139 65.7085 40.8011 65.3778 41.1534 65.128L51.7174 57.8093C52.1197 57.5392 52.5876 57.383 53.0716 57.3575C53.5554 57.3318 54.0372 57.4377 54.4659 57.6638C54.8946 57.89 55.2539 58.2278 55.5059 58.6418C55.7579 59.0557 55.8932 59.5302 55.8974 60.0147V62.804ZM55.8974 69.5453H77.2307V65.496L55.8974 65.484C55.1886 65.4815 54.5097 65.198 54.0097 64.6955C53.5097 64.193 53.2296 63.5128 53.2307 62.804V60.0147L42.6681 67.324L53.2361 74.6667L53.2307 72.224C53.2299 71.5155 53.5102 70.8355 54.0102 70.3333C54.5101 69.8312 55.1887 69.5478 55.8974 69.5453Z" fill="url(#paint0_linear_2216_831)"/>
  <defs>
    <linearGradient id="paint0_linear_2216_831" x1="36.2632" y1="1.83735" x2="81.5789" y2="77.55" gradientUnits="userSpaceOnUse">
      <stop stop-color="white"/>
      <stop offset="1" stop-color="white"/>
    </linearGradient>
  </defs>
</svg>
